<svg width="512" height="512" viewBox="0 0 512 512" fill="none" xmlns="http://www.w3.org/2000/svg">
<path d="M249.784 266.888C261.002 246.852 253.73 223.024 248.555 201.116C243.5 179.737 240.672 157.892 240.114 135.931C239.854 125.528 240.286 114.536 246.422 105.679C252.427 97.0116 262.94 91.7655 273.122 87.1241C313.029 68.9326 360.359 54.1636 401.78 69.439C430.592 80.0641 451.902 105.322 455.335 132.915C458.768 160.508 444.183 189.305 418.681 205.285C404.565 214.13 387.501 219.284 375.113 229.986C354.738 247.585 352.727 279.364 370.753 298.888C384.095 313.338 404.95 320.041 423.04 329.554C450.738 344.119 473.168 366.489 486.292 392.635C493.876 407.744 498.013 426.391 487.624 440.115C470.56 462.654 430.564 454.389 405.834 438.447C381.103 422.506 356.974 400.262 326.472 401.486C307.806 402.236 291.347 411.922 275.155 420.224C244.57 435.906 211.433 447.63 177.1 454.919C150.909 460.48 123.347 463.439 97.1337 457.962C70.9202 452.484 46.1599 437.401 36.0182 415.197C22.4721 385.543 38.9009 349.546 68.0579 330.809C116.633 299.593 218.501 322.76 249.784 266.888Z" fill="#F5F3E3"/>
<path d="M70.2787 206.715C71.1017 206.925 71.8575 207.342 72.4746 207.926C73.0917 208.509 73.5498 209.241 73.8054 210.051L77.8274 223.681L92.8828 221.838L93.4996 207.64C93.5523 206.792 93.8204 205.971 94.2785 205.256C94.7367 204.541 95.3697 203.954 96.1178 203.552L96.1675 203.522C96.8999 203.082 97.7333 202.836 98.5877 202.81C99.4422 202.784 100.289 202.978 101.047 203.373L113.529 210.168L122.872 198.219L113.268 187.743C112.702 187.103 112.31 186.328 112.129 185.493C111.948 184.657 111.986 183.789 112.237 182.972C112.242 182.954 112.247 182.935 112.253 182.917C112.463 182.094 112.879 181.338 113.463 180.721C114.047 180.104 114.778 179.646 115.588 179.39L129.219 175.368L127.376 160.313L113.177 159.696C112.33 159.644 111.51 159.376 110.795 158.918C110.08 158.461 109.494 157.829 109.091 157.082C109.081 157.065 109.072 157.048 109.062 157.032C108.621 156.3 108.375 155.466 108.349 154.612C108.323 153.757 108.517 152.911 108.912 152.153L115.707 139.67L103.758 130.327L93.2828 139.931C92.6425 140.497 91.8674 140.89 91.0318 141.07C90.1963 141.251 89.3283 141.214 88.5112 140.962L88.4559 140.947C87.6329 140.737 86.8772 140.32 86.2601 139.736C85.643 139.153 85.1849 138.421 84.9293 137.611L80.9073 123.98L65.8518 125.824L65.2351 140.022C65.1824 140.87 64.9144 141.69 64.4562 142.406C63.9981 143.121 63.365 143.708 62.6169 144.11L62.5671 144.139C61.8348 144.58 61.0014 144.825 60.147 144.852C59.2926 144.878 58.4458 144.684 57.6879 144.288L45.2059 137.494L35.8624 149.442L45.4663 159.918C46.0327 160.558 46.4251 161.333 46.6057 162.169C46.7863 163.004 46.7491 163.872 46.4976 164.689C46.4924 164.708 46.4874 164.726 46.4818 164.745C46.2717 165.568 45.8551 166.323 45.2715 166.941C44.6879 167.558 43.9565 168.016 43.1465 168.271L29.5156 172.293L31.3588 187.349L45.5573 187.966C46.4051 188.018 47.2255 188.286 47.9408 188.744C48.6561 189.203 49.2427 189.836 49.6451 190.584L49.6744 190.634C50.1153 191.366 50.3606 192.199 50.3867 193.054C50.4129 193.908 50.2189 194.755 49.8236 195.513L43.0289 207.995L54.9778 217.338L65.4534 207.734C66.0936 207.168 66.8687 206.776 67.7042 206.595C68.5397 206.414 69.4076 206.452 70.2246 206.703L70.2787 206.715ZM68.076 175.212C67.8027 172.979 68.1978 170.715 69.2113 168.706C70.2248 166.697 71.8112 165.034 73.7699 163.927C75.7287 162.82 77.9717 162.318 80.2154 162.486C82.4592 162.653 84.6028 163.483 86.3752 164.869C88.1477 166.255 89.4693 168.135 90.1731 170.272C90.8768 172.409 90.931 174.707 90.3289 176.875C89.7267 179.043 88.4952 180.983 86.7901 182.451C85.085 183.919 82.9829 184.849 80.7496 185.122C77.7548 185.488 74.7372 184.65 72.3604 182.792C69.9837 180.933 68.4425 178.207 68.076 175.212Z" fill="#015566"/>
<path d="M43.2325 241.877C43.7391 242.006 44.2043 242.263 44.584 242.622C44.9638 242.981 45.2456 243.431 45.4028 243.93L47.878 252.318L57.1428 251.185L57.5232 242.447C57.5555 241.925 57.7204 241.42 58.0024 240.98C58.2844 240.539 58.6741 240.178 59.1347 239.931L59.1639 239.913C59.6146 239.642 60.1275 239.491 60.6534 239.475C61.1792 239.458 61.7004 239.578 62.1669 239.821L69.8483 244.005L75.5979 236.652L69.688 230.205C69.3394 229.811 69.0979 229.334 68.9867 228.82C68.8756 228.305 68.8986 227.771 69.0534 227.269C69.0563 227.257 69.0596 227.246 69.0628 227.235C69.192 226.728 69.4484 226.263 69.8077 225.883C70.1669 225.504 70.6172 225.222 71.1158 225.065L79.5041 222.589L78.3704 213.325L69.6318 212.944C69.11 212.911 68.605 212.747 68.1647 212.465C67.7244 212.183 67.3633 211.793 67.1157 211.332C67.1096 211.322 67.104 211.312 67.0982 211.302C66.8268 210.851 66.6758 210.338 66.6597 209.812C66.6436 209.287 66.763 208.766 67.0063 208.299L71.1874 200.618L63.836 194.868L57.3895 200.778C56.9955 201.127 56.5185 201.368 56.0043 201.479C55.4902 201.59 54.956 201.568 54.4532 201.413L54.4181 201.403C53.9116 201.274 53.4464 201.018 53.0666 200.658C52.6868 200.299 52.405 199.849 52.2478 199.35L49.7727 190.962L40.5078 192.096L40.1275 200.833C40.0952 201.355 39.9303 201.86 39.6484 202.3C39.3664 202.741 38.9768 203.102 38.5163 203.349L38.487 203.367C38.0364 203.639 37.5235 203.79 36.9977 203.806C36.4719 203.822 35.9508 203.702 35.4844 203.459L27.8038 199.277L22.0539 206.63L27.9638 213.077C28.3124 213.47 28.5538 213.947 28.665 214.462C28.7761 214.976 28.7532 215.51 28.5984 216.013L28.5887 216.047C28.4595 216.553 28.2031 217.018 27.8438 217.398C27.4846 217.778 27.0344 218.06 26.5358 218.217L18.1475 220.692L19.2803 229.957L28.0179 230.337C28.5398 230.37 29.0448 230.535 29.4851 230.817C29.9254 231.099 30.2865 231.488 30.5341 231.949C30.5402 231.959 30.5458 231.969 30.5519 231.978C30.8232 232.429 30.9742 232.941 30.9903 233.467C31.0064 233.993 30.8871 234.514 30.6438 234.98L26.4629 242.663L33.8161 248.412L40.2626 242.502C40.6567 242.154 41.1337 241.912 41.6478 241.801C42.162 241.69 42.6961 241.713 43.1989 241.868L43.2325 241.877ZM41.8773 222.49C41.7092 221.116 41.9523 219.723 42.5761 218.486C43.1998 217.25 44.1761 216.227 45.3815 215.546C46.5869 214.864 47.9673 214.556 49.348 214.659C50.7288 214.762 52.0479 215.272 53.1386 216.125C54.2294 216.978 55.0426 218.136 55.4757 219.451C55.9087 220.766 55.942 222.18 55.5714 223.514C55.2007 224.848 54.4428 226.042 53.3935 226.946C52.3441 227.849 51.0505 228.421 49.6761 228.589C48.7636 228.701 47.838 228.631 46.9522 228.385C46.0664 228.139 45.2377 227.721 44.5135 227.155C43.7893 226.589 43.1838 225.885 42.7315 225.085C42.2792 224.284 41.9889 223.403 41.8773 222.49Z" fill="#6595F7"/>
<path d="M477.533 219.344H401.353C396.833 219.339 392.499 217.541 389.302 214.344C386.106 211.148 384.308 206.814 384.303 202.294V64.8051C384.308 60.2846 386.106 55.9508 389.302 52.7544C392.499 49.558 396.832 47.76 401.353 47.7549H477.533C482.054 47.76 486.387 49.558 489.584 52.7544C492.78 55.9508 494.578 60.2846 494.583 64.8051V202.294C494.578 206.814 492.78 211.148 489.584 214.344C486.387 217.541 482.054 219.339 477.533 219.344ZM401.353 49.2172C397.22 49.2218 393.258 50.8655 390.336 53.7877C387.414 56.7099 385.77 60.6719 385.766 64.8045V202.294C385.77 206.426 387.414 210.388 390.336 213.31C393.258 216.232 397.22 217.876 401.353 217.881H477.533C481.666 217.876 485.628 216.232 488.55 213.31C491.472 210.388 493.116 206.426 493.121 202.294V64.8051C493.116 60.6725 491.472 56.7105 488.55 53.7883C485.628 50.8661 481.666 49.2224 477.533 49.2177L401.353 49.2172Z" fill="#6445F1"/>
<path d="M455.065 67.873H368.253C358.281 67.873 350.197 75.9569 350.197 85.9288V234.194C350.197 244.166 358.281 252.25 368.253 252.25H455.065C465.037 252.25 473.121 244.166 473.121 234.194V85.9288C473.121 75.9569 465.037 67.873 455.065 67.873Z" fill="#6595F7"/>
<path d="M449.749 245.564H373.569C369.126 245.559 364.866 243.792 361.725 240.65C358.583 237.509 356.816 233.25 356.811 228.807V91.3172C356.816 86.8743 358.583 82.6149 361.725 79.4733C364.866 76.3317 369.126 74.5646 373.569 74.5596H449.749C454.192 74.5645 458.451 76.3317 461.593 79.4732C464.735 82.6148 466.502 86.8743 466.507 91.3172V228.807C466.502 233.25 464.734 237.509 461.593 240.651C458.451 243.792 454.192 245.559 449.749 245.564ZM373.569 75.4373C369.359 75.442 365.322 77.1166 362.345 80.0936C359.368 83.0707 357.693 87.107 357.689 91.3172V228.807C357.694 233.017 359.368 237.053 362.345 240.03C365.322 243.007 369.359 244.682 373.569 244.686H449.749C453.959 244.682 457.995 243.007 460.972 240.03C463.949 237.053 465.624 233.017 465.629 228.807V91.3172C465.624 87.107 463.95 83.0707 460.973 80.0936C457.996 77.1166 453.959 75.442 449.749 75.4373H373.569Z" fill="white"/>
<path d="M411.659 165.131C430.663 165.131 446.069 149.725 446.069 130.721C446.069 111.717 430.663 96.3105 411.659 96.3105C392.655 96.3105 377.249 111.717 377.249 130.721C377.249 149.725 392.655 165.131 411.659 165.131Z" fill="white"/>
<path d="M431.177 149.786C431.187 147.217 430.69 144.671 429.713 142.294C428.737 139.917 427.301 137.756 425.487 135.936C423.674 134.115 421.519 132.671 419.146 131.685C416.773 130.7 414.229 130.192 411.659 130.192C409.09 130.192 406.545 130.7 404.172 131.685C401.799 132.671 399.644 134.115 397.831 135.936C396.018 137.756 394.581 139.917 393.605 142.294C392.629 144.671 392.131 147.217 392.141 149.786H431.177Z" fill="#6595F7"/>
<path d="M411.659 128.482C417.137 128.482 421.577 124.041 421.577 118.564C421.577 113.087 417.137 108.646 411.659 108.646C406.182 108.646 401.742 113.087 401.742 118.564C401.742 124.041 406.182 128.482 411.659 128.482Z" fill="#6595F7"/>
<path d="M442.793 178.826H378.187C374.214 178.826 370.993 182.047 370.993 186.02V186.02C370.993 189.994 374.214 193.215 378.187 193.215H442.793C446.766 193.215 449.987 189.994 449.987 186.02V186.02C449.987 182.047 446.766 178.826 442.793 178.826Z" fill="white"/>
<path d="M442.793 206.909H378.187C374.214 206.909 370.993 210.13 370.993 214.103V214.103C370.993 218.077 374.214 221.298 378.187 221.298H442.793C446.766 221.298 449.987 218.077 449.987 214.103V214.103C449.987 210.13 446.766 206.909 442.793 206.909Z" fill="white"/>
<path d="M279.003 240.452H192.19C187.209 240.447 182.434 238.465 178.912 234.943C175.39 231.421 173.409 226.646 173.403 221.665V73.3995C173.409 68.4186 175.39 63.6433 178.912 60.1213C182.434 56.5992 187.209 54.618 192.19 54.6123H279.003C283.984 54.618 288.759 56.5992 292.281 60.1213C295.803 63.6433 297.784 68.4186 297.79 73.3995V221.665C297.784 226.646 295.803 231.421 292.281 234.943C288.759 238.465 283.984 240.447 279.003 240.452ZM192.19 56.0752C187.597 56.0804 183.194 57.9074 179.946 61.1552C176.698 64.403 174.871 68.8064 174.866 73.3995V221.665C174.871 226.258 176.698 230.662 179.946 233.909C183.194 237.157 187.597 238.984 192.19 238.989H279.003C283.596 238.984 287.999 237.157 291.247 233.909C294.495 230.662 296.322 226.258 296.327 221.665V73.3995C296.322 68.8064 294.495 64.403 291.247 61.1552C287.999 57.9074 283.596 56.0804 279.003 56.0752H192.19Z" fill="#6595F7"/>
<path d="M252.671 31.9385H165.859C155.887 31.9385 147.803 40.0223 147.803 49.9942V198.26C147.803 208.232 155.887 216.316 165.859 216.316H252.671C262.643 216.316 270.727 208.232 270.727 198.26V49.9942C270.727 40.0223 262.643 31.9385 252.671 31.9385Z" fill="#6445F1"/>
<path d="M210.219 114.669H205.61V113.791H210.219V114.669ZM201.043 114.669H196.477V113.791H201.043V114.669ZM191.909 114.669H187.342V113.791H191.909V114.669ZM182.775 114.669H178.208V113.791H182.775V114.669ZM173.641 114.669H171.046C170.36 114.669 169.675 114.602 169.002 114.468L169.173 113.608C169.79 113.73 170.417 113.791 171.045 113.791H173.641L173.641 114.669ZM214.819 113.58L214.428 112.795C215.734 112.141 216.875 111.198 217.763 110.038L218.46 110.571C217.491 111.837 216.246 112.866 214.819 113.58ZM164.699 112.513C163.436 111.539 162.41 110.291 161.701 108.862L162.488 108.473C163.137 109.782 164.077 110.926 165.234 111.818L164.699 112.513ZM220.403 106.262L219.542 106.093C219.66 105.486 219.72 104.869 219.72 104.25V101.624H220.597V104.25C220.597 104.925 220.532 105.599 220.403 106.262ZM161.503 104.284L160.625 104.26V99.6925H161.503V104.284ZM220.599 97.0562H219.721V92.4891H220.599V97.0562ZM161.506 95.1252H160.628V90.5582H161.506V95.1252ZM220.599 87.9221H219.721V83.355H220.599V87.9221ZM161.506 85.9911H160.628V81.4241H161.506V85.9911ZM220.599 78.7892H219.721V74.2221H220.599V78.7892ZM161.506 76.8582H160.628V72.29H161.506V76.8582ZM220.599 69.6539H219.721V65.0866H220.599V69.6539ZM161.506 67.7229H160.628V65.1176C160.628 64.4348 160.694 63.7536 160.826 63.0836L161.688 63.2542C161.567 63.8679 161.506 64.492 161.506 65.1176V67.7229ZM218.728 60.8768C218.076 59.5692 217.134 58.4274 215.975 57.5379L216.509 56.841C217.774 57.8123 218.802 59.0588 219.515 60.4862L218.728 60.8768ZM163.474 59.3136L162.777 58.7793C163.75 57.5147 164.997 56.4881 166.425 55.7772L166.815 56.5634C165.507 57.2146 164.364 58.1551 163.473 59.3136H163.474ZM212.033 55.7559C211.422 55.6362 210.801 55.576 210.179 55.576H207.563V54.6982H210.179C210.858 54.6982 211.536 54.7641 212.202 54.8949L212.033 55.7559ZM202.996 55.576H198.429V54.6982H202.996V55.576ZM193.862 55.576H189.293V54.6982H193.86L193.862 55.576ZM184.728 55.576H180.16V54.6982H184.727L184.728 55.576ZM175.594 55.576H171.046L171.026 54.6982H175.593L175.594 55.576Z" fill="white"/>
<path d="M172.168 44.917H133.036C127.524 44.917 123.056 49.3855 123.056 54.8978V94.0292C123.056 99.5414 127.524 104.01 133.036 104.01H172.168C177.68 104.01 182.149 99.5414 182.149 94.0292V54.8978C182.149 49.3855 177.68 44.917 172.168 44.917Z" fill="#6595F7"/>
<path d="M170.031 48.1445H135.174C130.264 48.1445 126.283 52.125 126.283 57.0352V91.8919C126.283 96.802 130.264 100.783 135.174 100.783H170.031C174.941 100.783 178.921 96.802 178.921 91.8919V57.0352C178.921 52.125 174.941 48.1445 170.031 48.1445Z" fill="white"/>
<path d="M130.816 92.8698L142.543 68.0287C143.344 66.3318 145.878 66.261 146.783 67.9117L152.658 78.6283C152.866 78.984 153.162 79.2806 153.517 79.4903C153.872 79.6999 154.275 79.8155 154.687 79.8263C155.099 79.837 155.507 79.7425 155.873 79.5517C156.238 79.3608 156.549 79.08 156.776 78.7357L160.208 73.245C160.437 72.8966 160.752 72.6133 161.123 72.4224C161.493 72.2314 161.907 72.1394 162.323 72.155C162.74 72.1707 163.146 72.2936 163.501 72.5119C163.856 72.7301 164.149 73.0363 164.351 73.4009L174.354 92.8013C175.113 94.2724 173.974 95.9833 172.238 95.9833H132.966C131.263 95.9839 130.125 94.3341 130.816 92.8698Z" fill="#6595F7"/>
<path d="M168.039 65.2587C171.157 65.2587 173.684 62.7311 173.684 59.6132C173.684 56.4953 171.157 53.9678 168.039 53.9678C164.921 53.9678 162.394 56.4953 162.394 59.6132C162.394 62.7311 164.921 65.2587 168.039 65.2587Z" fill="#6595F7"/>
<path d="M210.178 136.633H171.046C165.534 136.633 161.065 141.101 161.065 146.614V185.745C161.065 191.257 165.534 195.726 171.046 195.726H210.178C215.69 195.726 220.158 191.257 220.158 185.745V146.614C220.158 141.101 215.69 136.633 210.178 136.633Z" fill="#FF4655"/>
<path d="M208.041 139.859H173.184C168.274 139.859 164.293 143.84 164.293 148.75V183.607C164.293 188.517 168.274 192.497 173.184 192.497H208.041C212.951 192.497 216.931 188.517 216.931 183.607V148.75C216.931 143.84 212.951 139.859 208.041 139.859Z" fill="white"/>
<path d="M168.826 184.585L180.553 159.744C181.354 158.047 183.888 157.976 184.793 159.627L190.669 170.344C190.877 170.7 191.173 170.997 191.528 171.206C191.883 171.416 192.285 171.532 192.697 171.542C193.11 171.553 193.518 171.459 193.883 171.268C194.249 171.077 194.559 170.796 194.786 170.452L198.217 164.961C198.446 164.612 198.761 164.329 199.132 164.138C199.502 163.947 199.916 163.855 200.333 163.871C200.749 163.887 201.155 164.01 201.51 164.228C201.865 164.446 202.158 164.752 202.36 165.117L212.364 184.517C213.122 185.988 211.983 187.699 210.247 187.699H170.976C169.273 187.699 168.135 186.05 168.826 184.585Z" fill="#FF4655"/>
<path d="M206.049 156.973C209.167 156.973 211.695 154.445 211.695 151.327C211.695 148.209 209.167 145.682 206.049 145.682C202.931 145.682 200.404 148.209 200.404 151.327C200.404 154.445 202.931 156.973 206.049 156.973Z" fill="#FF4655"/>
<path d="M230.162 74.9776C233.019 74.9776 235.335 72.6618 235.335 69.8052C235.335 66.9486 233.019 64.6328 230.162 64.6328C227.306 64.6328 224.99 66.9486 224.99 69.8052C224.99 72.6618 227.306 74.9776 230.162 74.9776Z" fill="white"/>
<path d="M259.743 67.7988H238.678V71.8112H259.743V67.7988Z" fill="white"/>
<path d="M230.162 90.7764C233.019 90.7764 235.335 88.4606 235.335 85.604C235.335 82.7474 233.019 80.4316 230.162 80.4316C227.306 80.4316 224.99 82.7474 224.99 85.604C224.99 88.4606 227.306 90.7764 230.162 90.7764Z" fill="white"/>
<path d="M259.743 83.5977H238.678V87.61H259.743V83.5977Z" fill="white"/>
<path d="M230.162 106.575C233.019 106.575 235.335 104.259 235.335 101.403C235.335 98.5462 233.019 96.2305 230.162 96.2305C227.306 96.2305 224.99 98.5462 224.99 101.403C224.99 104.259 227.306 106.575 230.162 106.575Z" fill="white"/>
<path d="M259.743 99.3965H238.678V103.409H259.743V99.3965Z" fill="white"/>
<path d="M230.162 155.552C233.019 155.552 235.335 153.236 235.335 150.379C235.335 147.523 233.019 145.207 230.162 145.207C227.306 145.207 224.99 147.523 224.99 150.379C224.99 153.236 227.306 155.552 230.162 155.552Z" fill="white"/>
<path d="M259.743 148.374H238.678V152.386H259.743V148.374Z" fill="white"/>
<path d="M230.162 171.351C233.019 171.351 235.335 169.035 235.335 166.178C235.335 163.322 233.019 161.006 230.162 161.006C227.306 161.006 224.99 163.322 224.99 166.178C224.99 169.035 227.306 171.351 230.162 171.351Z" fill="white"/>
<path d="M259.743 164.173H238.678V168.185H259.743V164.173Z" fill="white"/>
<path d="M230.162 187.149C233.019 187.149 235.335 184.834 235.335 181.977C235.335 179.12 233.019 176.805 230.162 176.805C227.306 176.805 224.99 179.12 224.99 181.977C224.99 184.834 227.306 187.149 230.162 187.149Z" fill="white"/>
<path d="M259.743 179.972H238.678V183.984H259.743V179.972Z" fill="white"/>
<path d="M422.019 301.596C422.007 302.348 420.287 302.076 420.287 302.076C420.287 302.076 419.962 304.27 419.26 307.927C419.207 308.179 419.16 308.436 419.107 308.697C418.344 312.597 417.188 317.945 415.582 323.978C415.512 324.247 415.438 324.513 415.359 324.785C414.271 328.834 412.978 333.179 411.471 337.591C411.378 337.875 411.278 338.15 411.179 338.434C409.465 343.428 407.473 348.322 405.213 353.094C405.128 353.273 405.044 353.448 404.956 353.624C401.178 361.406 396.606 368.487 391.141 373.478H287.444L287.915 347.869L288.176 333.671L288.188 332.886L288.377 322.728L288.389 322.076L288.5 316.04L288.512 315.253L288.82 298.413L288.837 297.634L288.989 289.361L268.058 307.901L267.336 308.539L257.839 316.956L249.925 298.492L249.6 297.737L248.837 295.955V295.952L248.301 294.706V294.703L243.772 284.126L243.436 283.345L238.465 271.759L238.152 271.022L233.614 260.434C233.614 260.434 238.049 257.046 244.34 252.318C244.495 252.201 244.653 252.081 244.811 251.964C247.359 250.048 250.194 247.93 253.149 245.732C253.427 245.525 253.705 245.32 253.986 245.109C257.567 242.453 261.303 239.705 264.904 237.087C265.089 236.955 265.273 236.824 265.455 236.692C265.505 236.654 265.554 236.619 265.604 236.581C265.788 236.446 265.972 236.314 266.154 236.183C275.302 229.571 283.34 224.038 285.426 223.43C287.512 222.821 289.858 222.21 292.45 221.63H292.453C292.687 221.578 292.921 221.525 293.161 221.472H293.164C299.093 220.201 305.09 219.269 311.125 218.681C311.368 218.655 311.611 218.631 311.854 218.611C315.622 218.245 319.645 217.973 323.916 217.824C324.133 217.815 324.349 217.809 324.569 217.803C336.713 217.414 350.83 218.014 366.717 220.29C367.065 220.337 367.413 220.39 367.761 220.44C371.29 220.957 374.903 221.561 378.601 222.251C379.859 222.488 381.102 222.771 382.322 223.102C382.662 223.193 382.998 223.289 383.334 223.389C387.806 224.707 392.056 226.685 395.944 229.258C396.175 229.41 396.403 229.562 396.634 229.723C398.931 231.298 401.082 233.075 403.063 235.033C403.223 235.188 403.381 235.349 403.539 235.507C407.741 239.771 411.086 244.802 413.393 250.326C413.478 250.516 413.557 250.709 413.633 250.905C413.835 251.399 414.025 251.9 414.209 252.406C414.382 252.889 414.549 253.368 414.707 253.854C415.182 255.301 415.583 256.772 415.909 258.26C415.944 258.421 415.979 258.582 416.015 258.743C416.021 258.772 416.026 258.804 416.035 258.834C416.904 262.962 417.925 267.634 418.876 272.617C418.929 272.895 418.987 273.173 419.034 273.453C419.32 274.975 419.601 276.52 419.865 278.088C419.897 278.281 419.932 278.474 419.964 278.667C420.605 282.517 421.155 286.488 421.527 290.475C421.553 290.736 421.574 290.993 421.594 291.254C421.899 294.712 422.059 298.182 422.019 301.596Z" fill="#FF4655"/>
<path d="M350.315 304.41C349.297 306.499 347.731 308.273 345.784 309.541C343.836 310.809 341.581 311.525 339.259 311.61L330.522 311.993C320.996 312.412 311.148 312.845 302.052 316.256C298.863 317.453 295.765 319.027 292.766 320.548C291.326 321.282 289.863 322.023 288.377 322.728L288.389 322.075C289.779 321.411 291.148 320.715 292.499 320.027C295.513 318.497 298.626 316.914 301.847 315.709C311.031 312.265 320.926 311.829 330.496 311.408L339.232 311.025C341.441 310.928 343.584 310.242 345.439 309.037C347.293 307.832 348.79 306.153 349.776 304.173C350.762 302.194 351.199 299.987 351.044 297.781C350.888 295.575 350.144 293.451 348.89 291.63C346.171 287.713 342.536 284.519 338.302 282.327C328.717 277.455 317.553 277.104 306.751 276.768C305.905 276.741 305.06 276.715 304.22 276.686C293.058 276.308 280.349 275.296 270.738 268.034C267.97 265.943 266.232 263.798 265.428 261.478C264.386 258.491 265.135 255.196 267.251 253.473C268.951 252.083 271.238 251.806 273.251 251.718C280.065 251.416 286.987 252.794 293.681 254.129C303.419 256.068 312.614 257.9 321.687 255.123C322.605 254.842 323.515 254.48 323.96 253.725C324.401 252.976 324.288 252.007 324.115 250.995C322.746 242.9 321.192 233.725 316.757 226.144C315.157 223.458 313.269 220.955 311.125 218.681C311.367 218.654 311.61 218.631 311.853 218.61C313.904 220.828 315.717 223.254 317.263 225.849C321.751 233.52 323.313 242.753 324.691 250.896C324.881 252.019 325.007 253.105 324.463 254.023C323.916 254.951 322.839 255.384 321.856 255.682C312.643 258.502 302.947 256.572 293.568 254.702C286.908 253.377 280.019 252.004 273.278 252.303C271.358 252.388 269.188 252.645 267.619 253.927C265.694 255.498 265.019 258.526 265.978 261.288C266.748 263.494 268.418 265.548 271.092 267.566C280.565 274.726 293.169 275.726 304.237 276.101C305.08 276.13 305.925 276.157 306.771 276.183C317.634 276.522 328.866 276.873 338.568 281.806C342.889 284.042 346.597 287.302 349.37 291.3C350.701 293.194 351.492 295.415 351.658 297.724C351.825 300.033 351.36 302.344 350.315 304.41Z" fill="white"/>
<path d="M356.187 260.776C352.904 259.843 349.23 258.497 346.839 255.592C342.453 250.258 344.598 241.94 349.101 237.291C353.84 232.399 360.617 230.188 366.594 228.236L382.322 223.102C382.662 223.192 382.998 223.289 383.334 223.388L366.775 228.792C360.862 230.723 354.159 232.909 349.522 237.698C345.195 242.165 343.112 250.135 347.293 255.22C349.578 258.002 353.153 259.304 356.345 260.214C375.713 265.726 396.108 262.087 415.909 258.26C415.944 258.421 415.98 258.582 416.015 258.743C416.021 258.772 416.026 258.804 416.035 258.833C396.164 262.669 375.691 266.326 356.187 260.776Z" fill="white"/>
<path d="M367.612 288.426C366.786 301.305 365.76 317.33 373.109 330.012C380.028 341.958 393.039 348.676 405.213 353.093C405.128 353.272 405.043 353.447 404.955 353.623C392.7 349.17 379.598 342.385 372.6 330.305C365.165 317.47 366.199 301.346 367.029 288.388C367.149 286.525 367.354 284.749 368.556 283.514C369.502 282.546 370.847 282.165 372.143 281.861C381.626 279.635 391.541 279.316 401.132 279.009C402.826 278.953 404.514 278.9 406.202 278.836C410.751 278.66 415.305 278.411 419.865 278.087C419.897 278.28 419.932 278.473 419.965 278.666C415.383 278.994 410.803 279.245 406.225 279.421C404.537 279.485 402.843 279.538 401.152 279.594C391.591 279.901 381.702 280.22 372.278 282.432C371.064 282.715 369.812 283.066 368.975 283.924C367.913 285.012 367.725 286.677 367.612 288.426Z" fill="white"/>
<path d="M262.95 286.426C263.945 289.305 264.705 292.333 263.529 294.957C262.286 297.734 259.258 299.05 256.347 299.05C255.539 299.052 254.734 298.948 253.953 298.74C252.069 298.185 250.325 297.236 248.836 295.955V295.952L248.301 294.706C249.887 296.183 251.835 297.558 254.106 298.176C257.327 299.047 261.528 297.991 262.994 294.72C264.088 292.28 263.354 289.384 262.397 286.616C259.115 277.131 254.651 268.098 249.111 259.729C248.793 259.246 248.468 258.76 248.143 258.272C246.865 256.358 245.536 254.369 244.339 252.318C244.495 252.201 244.652 252.081 244.81 251.964C246.01 254.024 247.344 256.025 248.629 257.947C248.956 258.436 249.278 258.921 249.6 259.404C255.167 267.815 259.652 276.894 262.95 286.426Z" fill="white"/>
<path d="M297.374 232.769C296.657 233.535 295.674 233.977 294.808 234.331C285.524 238.123 275.498 237.921 265.454 236.692C265.504 236.654 265.554 236.619 265.604 236.581C265.788 236.446 265.972 236.315 266.153 236.183C275.908 237.336 285.621 237.45 294.586 233.79C295.396 233.459 296.309 233.05 296.946 232.368C299.328 229.826 296.762 225.633 294.457 223.439C293.804 222.818 293.136 222.216 292.453 221.631C292.687 221.578 292.921 221.525 293.161 221.473H293.164C293.74 221.973 294.305 222.485 294.861 223.015C297.824 225.837 299.878 230.095 297.374 232.769Z" fill="white"/>
<path d="M413.633 250.904C411.726 250.945 409.818 250.966 407.91 250.966C404.107 250.966 400.302 250.889 396.497 250.735C392.342 250.565 389.905 249.348 389.25 247.11C388.565 244.775 390.324 242.545 391.433 241.425C394.636 238.183 398.817 236.299 403.063 235.032C403.223 235.187 403.381 235.348 403.539 235.506C399.262 236.75 395.043 238.607 391.848 241.835C390.83 242.864 389.212 244.898 389.812 246.946C390.388 248.915 392.647 249.991 396.52 250.149C400.315 250.304 404.112 250.382 407.91 250.381C409.739 250.381 411.566 250.362 413.393 250.325C413.478 250.515 413.557 250.708 413.633 250.904Z" fill="white"/>
<path d="M367.76 220.44C357.632 225.291 346.895 229.03 335.572 230.074C335.066 230.121 334.536 230.162 334.004 230.162C332.983 230.204 331.969 229.977 331.063 229.504C329.72 228.731 328.945 227.274 328.322 226.104L323.916 217.824C324.132 217.815 324.349 217.81 324.568 217.804L328.84 225.829C329.428 226.932 330.16 228.307 331.356 228.995C332.573 229.697 334.08 229.624 335.519 229.492C346.465 228.483 356.872 224.928 366.717 220.291C367.064 220.336 367.413 220.39 367.76 220.44Z" fill="white"/>
<path d="M233.613 260.436L145.803 220.736L133.925 247.542L229.2 315.695C232.557 317.967 236.521 319.175 240.575 319.16C244.629 319.145 248.584 317.908 251.924 315.61L256.044 312.775L233.613 260.436Z" fill="#F59060"/>
<path d="M376.936 300.809L422.018 301.594L427.059 346.471C427.441 349.869 427.101 353.309 426.062 356.566C425.023 359.824 423.308 362.825 421.029 365.374C418.75 367.923 415.959 369.962 412.838 371.359C409.717 372.755 406.336 373.477 402.917 373.477H287.444L287.915 347.87L378.954 333.78L376.936 300.809Z" fill="#F59060"/>
<path d="M399.593 329.664L378.862 333.265L379.041 334.296L399.772 330.695L399.593 329.664Z" fill="#090909"/>
<path d="M316.386 183.073C316.371 183.245 316.365 183.417 316.359 183.59C316.319 184.515 316.307 185.435 316.333 186.342C316.33 186.497 316.333 186.653 316.34 186.809C316.353 187.294 316.378 187.763 316.419 188.242C316.494 189.321 316.607 190.395 316.779 191.433C317.862 198.021 321.036 203.683 327.924 206.404L326.467 217.633C326.322 218.734 326.359 219.851 326.578 220.939C326.706 221.552 327.045 222.1 327.536 222.487C332.983 226.833 343.27 225.435 353.829 219.693L351.677 197.691L358.508 196.762C361.244 196.393 363.648 194.626 364.592 192.031C364.654 191.871 364.707 191.708 364.752 191.543L365.276 189.719C365.592 188.62 365.653 187.463 365.455 186.337C365.257 185.21 364.805 184.144 364.133 183.219C363.461 182.294 362.587 181.534 361.577 180.997C360.567 180.461 359.448 180.161 358.305 180.122C358.305 180.122 358.31 180.022 358.308 179.849C358.334 176.831 358.003 150.745 338.973 151.264C329.675 151.506 321.711 158.023 319.209 166.978C317.904 171.679 316.663 177.399 316.386 183.073Z" fill="#F59060"/>
<path d="M324.161 193.376C324.001 193.292 323.858 193.179 323.739 193.042C321.93 190.982 325.215 183.016 325.893 181.441C325.941 181.327 326.033 181.238 326.147 181.192C326.262 181.147 326.39 181.148 326.503 181.197C326.616 181.245 326.706 181.337 326.751 181.452C326.797 181.566 326.795 181.694 326.747 181.807C325.269 185.248 323.336 191.174 324.438 192.429C324.509 192.509 324.725 192.756 325.457 192.549C325.575 192.516 325.702 192.531 325.809 192.591C325.917 192.652 325.996 192.752 326.029 192.87C326.063 192.989 326.048 193.116 325.988 193.223C325.928 193.331 325.828 193.41 325.71 193.444C325.205 193.626 324.648 193.601 324.161 193.376Z" fill="#090909"/>
<path d="M334.307 190.252C336.846 190.112 338.84 188.853 338.762 187.44C338.685 186.027 336.564 184.996 334.026 185.135C331.487 185.275 329.493 186.534 329.571 187.947C329.649 189.36 331.769 190.391 334.307 190.252Z" fill="#FC6D6D"/>
<path d="M316.334 186.342C316.33 186.497 316.334 186.653 316.341 186.809C316.354 187.294 316.379 187.763 316.42 188.242C316.495 189.321 316.607 190.395 316.78 191.433C316.87 191.437 316.953 191.43 317.045 191.425C319.593 191.285 321.588 190.026 321.507 188.608C321.425 187.191 319.308 186.16 316.767 186.302C316.621 186.31 316.482 186.327 316.334 186.342Z" fill="#FC6D6D"/>
<path d="M327.921 206.408C327.921 206.408 333.08 208.219 339.267 203.804C339.267 203.804 335.741 209.981 327.554 209.225L327.921 206.408Z" fill="#090909"/>
<path d="M336.71 177.103C336.075 176.784 335.408 176.535 334.721 176.359C334.043 176.18 333.346 176.088 332.646 176.083C331.977 176.09 331.315 176.218 330.692 176.463C330.095 176.72 329.555 177.093 329.103 177.56L329.051 177.609C328.979 177.677 328.894 177.73 328.801 177.765C328.709 177.801 328.61 177.817 328.511 177.814C328.311 177.808 328.122 177.723 327.985 177.578C327.848 177.432 327.774 177.238 327.78 177.039C327.785 176.839 327.871 176.649 328.016 176.512C328.025 176.503 328.036 176.493 328.045 176.485C328.676 175.912 329.417 175.472 330.222 175.191C331.014 174.937 331.846 174.83 332.677 174.877C333.475 174.934 334.262 175.092 335.02 175.347C335.77 175.594 336.491 175.922 337.17 176.326C337.269 176.386 337.342 176.483 337.371 176.596C337.401 176.708 337.387 176.828 337.33 176.93C337.273 177.032 337.18 177.108 337.068 177.142C336.957 177.176 336.837 177.166 336.733 177.114L336.71 177.103Z" fill="#090909"/>
<path d="M315.844 176.528C316.449 176.078 317.102 175.699 317.792 175.397C318.491 175.085 319.228 174.868 319.985 174.753C320.777 174.645 321.583 174.695 322.357 174.899C323.141 175.127 323.87 175.515 324.497 176.038C324.577 176.098 324.646 176.173 324.697 176.259C324.748 176.345 324.782 176.44 324.796 176.539C324.811 176.639 324.805 176.74 324.779 176.837C324.754 176.934 324.71 177.025 324.649 177.104C324.588 177.184 324.511 177.251 324.424 177.3C324.337 177.35 324.241 177.382 324.142 177.394C324.042 177.407 323.941 177.399 323.845 177.372C323.748 177.344 323.658 177.298 323.58 177.236C323.57 177.228 323.559 177.219 323.551 177.211L323.489 177.158C323.048 176.736 322.526 176.408 321.955 176.194C321.362 175.993 320.735 175.91 320.11 175.95C319.453 176.005 318.806 176.147 318.186 176.373C317.554 176.598 316.949 176.892 316.382 177.251L316.361 177.265C316.263 177.327 316.144 177.349 316.03 177.326C315.916 177.304 315.815 177.238 315.749 177.142C315.682 177.047 315.655 176.929 315.673 176.814C315.691 176.7 315.753 176.596 315.846 176.526L315.844 176.528Z" fill="#090909"/>
<path d="M333.604 180.944C333.72 179.878 333.245 178.952 332.544 178.875C331.843 178.799 331.18 179.602 331.065 180.669C330.949 181.735 331.423 182.661 332.125 182.737C332.826 182.814 333.488 182.011 333.604 180.944Z" fill="#090909"/>
<path d="M321.032 180.634C321.141 179.626 320.798 178.762 320.266 178.704C319.733 178.647 319.213 179.417 319.103 180.425C318.994 181.433 319.337 182.297 319.869 182.355C320.402 182.413 320.922 181.642 321.032 180.634Z" fill="#090909"/>
<path d="M360.39 192.03C361.362 189.654 361.438 187.77 360.613 186.432C359.456 184.554 356.85 184.33 356.824 184.328L356.899 183.323C357.027 183.333 360.034 183.582 361.466 185.896C362.474 187.525 362.425 189.717 361.322 192.412L360.39 192.03Z" fill="#090909"/>
<path d="M358.309 180.127C356.79 180.458 355.345 181.067 354.048 181.925C351.919 183.348 351.566 184.585 350.689 184.741C349.288 184.99 346.88 182.419 342.452 170.74C331.159 173.341 322.84 171.87 318.271 170.61C313.771 169.369 312.047 168.154 311.546 167.777C304.2 162.26 301.257 148.861 307.457 140.464C308.422 139.159 311.385 135.146 316.365 134.328C325.754 132.786 330.898 148.598 341.143 147.504C344.432 147.153 345.912 145.38 349.119 146.233C353.046 147.277 355.45 151.164 356.877 154.333C359.093 155.53 361.001 157.224 362.453 159.282C368.805 168.408 362.549 180.75 362.216 181.382L358.309 180.127Z" fill="#090909"/>
<path d="M357.185 196.946L352.407 205.153L351.676 197.691L357.185 196.946Z" fill="#090909"/>
<path d="M325.517 197.597C326.926 197.622 329.437 197.309 332.893 195.492C332.969 195.451 333.055 195.435 333.141 195.444C333.226 195.453 333.307 195.488 333.373 195.543C333.439 195.599 333.486 195.673 333.509 195.756C333.533 195.839 333.53 195.927 333.503 196.008C332.777 198.162 330.527 202.673 325.237 198.362C325.168 198.306 325.117 198.229 325.094 198.142C325.07 198.056 325.074 197.964 325.104 197.88C325.135 197.796 325.191 197.723 325.265 197.672C325.339 197.622 325.427 197.595 325.517 197.597Z" fill="#E52039"/>
<path d="M233.613 260.436L253.915 314.24L256.044 312.775L233.613 260.436Z" fill="#090909"/>
<path d="M376.936 300.809L422.433 305.286L422.018 301.594L376.936 300.809Z" fill="#090909"/>
<path d="M351.676 373.477H252.091L239.095 309.804C238.757 308.149 238.792 306.44 239.196 304.8C239.6 303.16 240.364 301.631 241.432 300.322C242.501 299.014 243.847 297.959 245.373 297.235C246.899 296.511 248.566 296.136 250.256 296.136H335.891L351.676 373.477Z" fill="#6445F1"/>
<path d="M402.917 373.477H351.676C351.379 373.481 351.089 373.382 350.856 373.198C350.623 373.013 350.46 372.755 350.394 372.464L334.609 297.654C334.576 297.489 334.577 297.319 334.611 297.154C334.645 296.989 334.711 296.833 334.806 296.694C334.901 296.555 335.023 296.437 335.164 296.345C335.305 296.254 335.463 296.191 335.629 296.162C335.964 296.091 336.314 296.155 336.602 296.34C336.891 296.524 337.096 296.815 337.172 297.149L352.744 370.947H402.917C403.087 370.941 403.256 370.97 403.415 371.031C403.573 371.092 403.718 371.184 403.84 371.302C403.962 371.42 404.06 371.561 404.126 371.718C404.192 371.874 404.226 372.042 404.226 372.212C404.226 372.382 404.192 372.55 404.126 372.707C404.06 372.863 403.962 373.005 403.84 373.123C403.718 373.241 403.573 373.333 403.415 373.394C403.256 373.455 403.087 373.484 402.917 373.478V373.477Z" fill="#090909"/>
<path d="M294.251 344.049C299.984 342.008 302.9 335.493 300.766 329.498C298.631 323.502 292.253 320.297 286.52 322.338C280.788 324.379 277.871 330.894 280.006 336.89C282.141 342.885 288.518 346.09 294.251 344.049Z" fill="white"/>
<path d="M377.459 262.791H376.412V300.808H377.459V262.791Z" fill="#090909"/>
<path d="M289.511 262.791H288.465V289.359H289.511V262.791Z" fill="#090909"/>
<path d="M149.834 222.238L137.934 213.016C137.254 212.506 136.501 212.101 135.699 211.817C130.679 210.032 111.179 201.977 96.1418 195.716C93.9337 194.797 92.2737 197.828 94.233 199.198C97.978 201.817 106.718 205.488 106.516 209.107C106.44 210.456 104.728 210.588 103.973 213.333C103.741 214.174 103.595 215.279 102.886 216.945C102.728 217.383 102.527 217.804 102.285 218.203C101.554 219.291 100.635 219.592 99.7182 221.502C98.638 223.753 99.5301 224.143 98.2787 226.923C97.5657 228.508 97.0719 228.833 96.6269 230.46C96.3343 231.531 95.9978 232.8 96.5604 234.138C96.8051 234.723 97.1695 235.25 97.63 235.685C98.0906 236.12 98.6371 236.454 99.2346 236.665L118.593 243.543C120.732 244.304 125.314 242.308 126.627 244.158L138.352 250.279L149.834 222.238Z" fill="#F59060"/>
<path d="M131.855 227.199C130.852 227.288 129.842 227.166 128.889 226.842C128.102 226.56 127.381 226.12 126.769 225.549C124.168 223.135 123.802 218.893 123.75 217.715L121.159 215.715L119.108 214.132L116.563 212.174C116.152 211.857 115.858 211.413 115.726 210.912C115.594 210.41 115.631 209.879 115.832 209.401C116.032 208.923 116.385 208.525 116.836 208.268C117.286 208.011 117.809 207.91 118.322 207.981L121.155 208.369L123.649 208.706L128.07 209.31L127.906 210.532L123.229 209.888L120.735 209.551L118.15 209.2C117.906 209.167 117.658 209.216 117.444 209.339C117.23 209.462 117.063 209.652 116.968 209.879C116.873 210.107 116.857 210.359 116.92 210.597C116.983 210.836 117.124 211.046 117.319 211.196L119.543 212.909L121.594 214.492L124.973 217.096L124.977 217.402C124.979 217.447 125.022 222.253 127.614 224.646C128.687 225.646 130.088 226.092 131.768 225.974L131.855 227.199Z" fill="#090909"/>
<path d="M106.812 208.464L106.298 209.583L123.46 217.467L123.974 216.348L106.812 208.464Z" fill="#090909"/>
<path d="M118.638 234.547L118.317 233.358C120.163 232.86 121.404 231.974 122.004 230.724C122.835 228.994 122.243 226.989 122.013 226.347L102.629 217.506L103.14 216.386L122.968 225.427L123.062 225.641C123.116 225.763 124.363 228.65 123.121 231.248C122.358 232.841 120.85 233.951 118.638 234.547Z" fill="#090909"/>
<path d="M115.369 242.842L114.795 241.753C118.972 239.548 118.262 235.526 117.976 234.427L98.1196 227.372L98.5319 226.212L118.965 233.472L119.061 233.754C119.081 233.814 121.053 239.842 115.369 242.842Z" fill="#090909"/>
<path d="M122.933 226.326L122.064 225.453C124.96 222.568 123.774 217.601 123.761 217.551L124.956 217.255C125.016 217.486 126.319 222.954 122.933 226.326Z" fill="#090909"/>
<path d="M428.474 373.477H82.1362V487.997H428.474V373.477Z" fill="#015566"/>
<path d="M433.933 373.477H76.6764C72.4233 373.477 68.9756 376.924 68.9756 381.177C68.9756 385.43 72.4233 388.878 76.6764 388.878H433.933C438.186 388.878 441.633 385.43 441.633 381.177C441.633 376.924 438.186 373.477 433.933 373.477Z" fill="#004751"/>
<path d="M240.601 373.477H153.782C150.562 373.477 147.474 372.198 145.197 369.922C142.92 367.645 141.641 364.557 141.641 361.337C141.641 358.117 142.92 355.029 145.197 352.752C147.474 350.475 150.562 349.195 153.782 349.195H240.601V373.477Z" fill="#6445F1"/>
<path d="M154.075 352.371H240.602V370.302H154.075C151.707 370.302 149.436 369.361 147.761 367.687C146.086 366.012 145.146 363.741 145.146 361.372V361.301C145.145 360.129 145.376 358.967 145.825 357.884C146.274 356.8 146.932 355.816 147.761 354.987C148.59 354.157 149.575 353.5 150.658 353.051C151.741 352.602 152.903 352.371 154.075 352.371Z" fill="white"/>
<path d="M240.602 355.842H146.627V357.027H240.602V355.842Z" fill="#090909"/>
<path d="M240.602 366.636H147.336V367.821H240.602V366.636Z" fill="#090909"/>
<path d="M240.602 360.744H145.146V361.93H240.602V360.744Z" fill="#090909"/>
<path d="M162.008 330.265H229.701V349.196H162.008C159.497 349.196 157.09 348.199 155.314 346.424C153.539 344.649 152.542 342.241 152.542 339.731C152.542 337.22 153.539 334.812 155.314 333.037C157.09 331.262 159.497 330.265 162.008 330.265V330.265Z" fill="#FCB913"/>
<path d="M162.237 332.74H229.702V346.721H162.237C160.39 346.721 158.619 345.988 157.313 344.682C156.007 343.376 155.273 341.605 155.273 339.758V339.702C155.273 337.856 156.007 336.085 157.313 334.779C158.619 333.473 160.39 332.739 162.237 332.739V332.74Z" fill="white"/>
<path d="M229.701 335.316H156.429V336.502H229.701V335.316Z" fill="#090909"/>
<path d="M229.701 343.731H156.981V344.917H229.701V343.731Z" fill="#090909"/>
<path d="M229.701 339.138H155.274V340.323H229.701V339.138Z" fill="#090909"/>
<path d="M117.909 256.885H114.677V301.696H117.909V256.885Z" fill="#080808"/>
<path d="M111.125 241.799C111.125 241.799 116.201 228.206 121.474 241.799C121.475 241.799 116.094 251.577 111.125 241.799Z" fill="#FF4655"/>
<path d="M109.14 240.655C108.745 240.437 108.301 240.325 107.85 240.33C107.399 240.334 106.957 240.455 106.567 240.681C106.177 240.907 105.852 241.23 105.623 241.619C105.395 242.008 105.271 242.449 105.264 242.9C105.207 246.787 105.959 250.644 107.471 254.226C108.6 256.869 111.708 264.144 116.276 264.157C120.844 264.171 123.997 256.896 125.099 254.35C126.649 250.728 127.411 246.818 127.334 242.879C127.33 242.437 127.214 242.004 126.996 241.62C126.777 241.236 126.464 240.914 126.087 240.686C125.709 240.457 125.279 240.329 124.837 240.313C124.396 240.298 123.958 240.395 123.565 240.597C121.352 241.797 118.877 242.43 116.36 242.44C113.843 242.45 111.362 241.837 109.14 240.655Z" fill="#FF4655"/>
<path d="M133.851 358.897L128.889 372.926C128.852 373.076 128.767 373.21 128.648 373.309C128.529 373.408 128.381 373.466 128.227 373.475H104.353C104.191 373.472 104.035 373.409 103.917 373.298C103.811 373.195 103.733 373.067 103.691 372.926L98.7288 358.865C94.1061 345.773 94.1061 330.791 98.7127 317.683L98.7288 317.65C102.081 307.948 103.013 297.573 101.444 287.428V287.412C101.363 286.83 101.703 286.312 102.155 286.312H130.391C130.843 286.312 131.199 286.83 131.102 287.412C130.989 288.172 130.892 288.931 130.795 289.691C130.518 292.127 130.377 294.576 130.375 297.028C130.364 304.055 131.539 311.032 133.85 317.668C138.473 331.022 138.473 345.542 133.851 358.897Z" fill="#6445F1"/>
<path d="M116.3 352.726C121.241 352.726 125.247 345.464 125.247 336.506C125.247 327.548 121.241 320.286 116.3 320.286C111.358 320.286 107.353 327.548 107.353 336.506C107.353 345.464 111.358 352.726 116.3 352.726Z" fill="white"/>
</svg>
