<svg width="856" height="1070" viewBox="0 0 856 1070" fill="none" xmlns="http://www.w3.org/2000/svg">
<path d="M458.784 522.888C470.002 502.852 462.73 479.024 457.555 457.116C452.5 435.737 449.672 413.892 449.114 391.931C448.854 381.528 449.286 370.536 455.422 361.679C461.427 353.012 471.94 347.765 482.122 343.124C522.029 324.933 569.359 310.164 610.78 325.439C639.592 336.064 660.902 361.322 664.335 388.915C667.768 416.508 653.183 445.305 627.681 461.285C613.565 470.13 596.502 475.284 584.113 485.986C563.738 503.585 561.727 535.364 579.753 554.888C593.094 569.338 613.95 576.041 632.04 585.554C659.738 600.119 682.168 622.489 695.292 648.635C702.876 663.744 707.013 682.391 696.624 696.115C679.56 718.654 639.564 710.389 614.834 694.447C590.103 678.506 565.974 656.262 535.472 657.486C516.806 658.235 500.347 667.922 484.155 676.224C453.57 691.906 420.433 703.63 386.1 710.919C359.909 716.48 332.347 719.439 306.134 713.962C279.92 708.484 255.16 693.401 245.018 671.197C231.472 641.543 247.901 605.546 277.058 586.809C325.633 555.593 427.501 578.76 458.784 522.888Z" fill="#F5F3E3"/>
<path d="M279.279 462.715C280.102 462.925 280.858 463.342 281.475 463.926C282.092 464.509 282.55 465.241 282.805 466.051L286.827 479.681L301.883 477.838L302.5 463.64C302.552 462.792 302.82 461.971 303.279 461.256C303.737 460.541 304.37 459.954 305.118 459.552L305.168 459.522C305.9 459.082 306.733 458.836 307.588 458.81C308.442 458.784 309.289 458.978 310.047 459.373L322.529 466.168L331.872 454.219L322.268 443.743C321.702 443.103 321.31 442.328 321.129 441.493C320.948 440.657 320.986 439.789 321.237 438.972C321.242 438.954 321.247 438.935 321.253 438.917C321.463 438.094 321.879 437.338 322.463 436.721C323.047 436.104 323.778 435.646 324.588 435.39L338.219 431.368L336.376 416.313L322.177 415.696C321.33 415.644 320.51 415.376 319.795 414.918C319.08 414.461 318.494 413.829 318.091 413.082C318.081 413.065 318.072 413.048 318.062 413.032C317.621 412.3 317.375 411.466 317.349 410.612C317.323 409.757 317.517 408.911 317.912 408.153L324.707 395.67L312.758 386.327L302.283 395.931C301.643 396.497 300.867 396.89 300.032 397.07C299.196 397.251 298.328 397.214 297.511 396.962L297.456 396.947C296.633 396.737 295.877 396.32 295.26 395.736C294.643 395.153 294.185 394.421 293.929 393.611L289.907 379.98L274.852 381.824L274.235 396.022C274.182 396.87 273.914 397.69 273.456 398.406C272.998 399.121 272.365 399.708 271.617 400.11L271.567 400.139C270.835 400.58 270.001 400.825 269.147 400.852C268.293 400.878 267.446 400.684 266.688 400.288L254.206 393.494L244.862 405.442L254.466 415.918C255.033 416.558 255.425 417.333 255.606 418.169C255.786 419.004 255.749 419.872 255.498 420.689C255.492 420.708 255.487 420.726 255.482 420.745C255.272 421.568 254.855 422.323 254.271 422.941C253.688 423.558 252.957 424.016 252.147 424.271L238.516 428.293L240.359 443.349L254.557 443.966C255.405 444.018 256.225 444.286 256.941 444.744C257.656 445.203 258.243 445.836 258.645 446.584L258.674 446.634C259.115 447.366 259.361 448.199 259.387 449.054C259.413 449.908 259.219 450.755 258.824 451.513L252.029 463.995L263.978 473.338L274.453 463.734C275.094 463.168 275.869 462.776 276.704 462.595C277.54 462.414 278.408 462.452 279.225 462.703L279.279 462.715ZM277.076 431.212C276.803 428.979 277.198 426.715 278.211 424.706C279.225 422.697 280.811 421.034 282.77 419.927C284.729 418.82 286.972 418.318 289.215 418.486C291.459 418.653 293.603 419.483 295.375 420.869C297.148 422.255 298.469 424.135 299.173 426.272C299.877 428.409 299.931 430.707 299.329 432.875C298.727 435.043 297.495 436.983 295.79 438.451C294.085 439.919 291.983 440.849 289.75 441.122C286.755 441.488 283.737 440.65 281.36 438.792C278.984 436.933 277.443 434.207 277.076 431.212V431.212Z" fill="#015566"/>
<path d="M252.233 497.877C252.739 498.006 253.204 498.263 253.584 498.622C253.964 498.981 254.246 499.431 254.403 499.93L256.878 508.318L266.143 507.185L266.523 498.447C266.555 497.925 266.72 497.42 267.002 496.98C267.284 496.539 267.674 496.178 268.135 495.931L268.164 495.913C268.615 495.642 269.128 495.491 269.653 495.475C270.179 495.458 270.7 495.578 271.167 495.821L278.848 500.005L284.598 492.652L278.688 486.205C278.339 485.811 278.098 485.334 277.987 484.82C277.876 484.305 277.899 483.771 278.053 483.269C278.056 483.257 278.06 483.246 278.063 483.235C278.192 482.728 278.448 482.263 278.808 481.883C279.167 481.504 279.617 481.222 280.116 481.065L288.504 478.589L287.37 469.325L278.632 468.944C278.11 468.911 277.605 468.747 277.165 468.465C276.724 468.183 276.363 467.793 276.116 467.332C276.11 467.322 276.104 467.312 276.098 467.302C275.827 466.851 275.676 466.338 275.66 465.812C275.644 465.287 275.763 464.766 276.006 464.299L280.187 456.618L272.836 450.868L266.389 456.778C265.995 457.127 265.519 457.368 265.004 457.479C264.49 457.59 263.956 457.568 263.453 457.413L263.418 457.403C262.912 457.274 262.446 457.018 262.067 456.658C261.687 456.299 261.405 455.849 261.248 455.35L258.773 446.962L249.508 448.096L249.127 456.833C249.095 457.355 248.93 457.86 248.648 458.3C248.366 458.741 247.977 459.102 247.516 459.349L247.487 459.367C247.036 459.639 246.524 459.79 245.998 459.806C245.472 459.822 244.951 459.702 244.484 459.459L236.804 455.277L231.054 462.63L236.964 469.077C237.312 469.47 237.554 469.947 237.665 470.462C237.776 470.976 237.753 471.51 237.598 472.013L237.589 472.047C237.459 472.553 237.203 473.018 236.844 473.398C236.485 473.778 236.034 474.06 235.536 474.217L227.147 476.692L228.28 485.957L237.018 486.337C237.54 486.37 238.045 486.535 238.485 486.817C238.925 487.099 239.286 487.488 239.534 487.949C239.54 487.959 239.546 487.969 239.552 487.978C239.823 488.429 239.974 488.941 239.99 489.467C240.006 489.993 239.887 490.514 239.644 490.98L235.463 498.663L242.816 504.412L249.263 498.502C249.657 498.154 250.134 497.912 250.648 497.801C251.162 497.69 251.696 497.713 252.199 497.868L252.233 497.877ZM250.877 478.49C250.709 477.116 250.952 475.723 251.576 474.486C252.2 473.25 253.176 472.227 254.382 471.546C255.587 470.864 256.967 470.556 258.348 470.659C259.729 470.762 261.048 471.272 262.139 472.125C263.229 472.978 264.043 474.136 264.476 475.451C264.909 476.766 264.942 478.18 264.571 479.514C264.201 480.848 263.443 482.042 262.393 482.946C261.344 483.849 260.05 484.421 258.676 484.589C257.764 484.701 256.838 484.631 255.952 484.385C255.066 484.139 254.238 483.721 253.514 483.155C252.789 482.589 252.184 481.885 251.731 481.085C251.279 480.284 250.989 479.403 250.877 478.49V478.49Z" fill="#6595F7"/>
<path d="M686.533 475.344H610.353C605.833 475.339 601.499 473.541 598.302 470.344C595.106 467.148 593.308 462.814 593.303 458.294V320.805C593.308 316.285 595.106 311.951 598.302 308.754C601.499 305.558 605.832 303.76 610.353 303.755H686.533C691.054 303.76 695.387 305.558 698.584 308.754C701.78 311.951 703.578 316.285 703.583 320.805V458.294C703.578 462.814 701.78 467.148 698.584 470.344C695.387 473.541 691.054 475.339 686.533 475.344ZM610.353 305.217C606.22 305.222 602.258 306.866 599.336 309.788C596.414 312.71 594.77 316.672 594.766 320.804V458.294C594.77 462.426 596.414 466.388 599.336 469.31C602.258 472.232 606.22 473.876 610.353 473.881H686.533C690.666 473.876 694.628 472.232 697.55 469.31C700.472 466.388 702.116 462.426 702.121 458.294V320.805C702.116 316.672 700.472 312.71 697.55 309.788C694.628 306.866 690.666 305.222 686.533 305.218L610.353 305.217Z" fill="#6445F1"/>
<path d="M664.065 323.873H577.253C567.281 323.873 559.197 331.957 559.197 341.929V490.194C559.197 500.166 567.281 508.25 577.253 508.25H664.065C674.037 508.25 682.121 500.166 682.121 490.194V341.929C682.121 331.957 674.037 323.873 664.065 323.873Z" fill="#6595F7"/>
<path d="M658.749 501.564H582.569C578.126 501.559 573.866 499.792 570.725 496.65C567.583 493.509 565.816 489.25 565.811 484.807V347.317C565.816 342.874 567.583 338.615 570.725 335.473C573.866 332.332 578.126 330.565 582.569 330.56H658.749C663.192 330.565 667.451 332.332 670.593 335.473C673.735 338.615 675.502 342.874 675.507 347.317V484.807C675.502 489.25 673.734 493.509 670.593 496.651C667.451 499.792 663.192 501.559 658.749 501.564ZM582.569 331.437C578.359 331.442 574.322 333.117 571.345 336.094C568.368 339.071 566.693 343.107 566.689 347.317V484.807C566.694 489.017 568.368 493.053 571.345 496.03C574.322 499.007 578.359 500.682 582.569 500.686H658.749C662.959 500.682 666.995 499.007 669.972 496.03C672.949 493.053 674.624 489.017 674.629 484.807V347.317C674.624 343.107 672.95 339.071 669.973 336.094C666.996 333.117 662.959 331.442 658.749 331.437H582.569Z" fill="white"/>
<path d="M620.659 421.131C639.663 421.131 655.069 405.725 655.069 386.721C655.069 367.717 639.663 352.311 620.659 352.311C601.655 352.311 586.249 367.717 586.249 386.721C586.249 405.725 601.655 421.131 620.659 421.131Z" fill="white"/>
<path d="M640.177 405.786C640.187 403.217 639.69 400.671 638.713 398.294C637.737 395.917 636.301 393.756 634.487 391.936C632.674 390.115 630.519 388.671 628.146 387.685C625.773 386.7 623.229 386.192 620.659 386.192C618.09 386.192 615.545 386.7 613.172 387.685C610.799 388.671 608.644 390.115 606.831 391.936C605.018 393.756 603.581 395.917 602.605 398.294C601.629 400.671 601.131 403.217 601.141 405.786H640.177Z" fill="#6595F7"/>
<path d="M620.659 384.482C626.137 384.482 630.577 380.041 630.577 374.564C630.577 369.087 626.137 364.646 620.659 364.646C615.182 364.646 610.742 369.087 610.742 374.564C610.742 380.041 615.182 384.482 620.659 384.482Z" fill="#6595F7"/>
<path d="M651.793 434.826H587.187C583.214 434.826 579.993 438.047 579.993 442.02V442.02C579.993 445.994 583.214 449.215 587.187 449.215H651.793C655.766 449.215 658.987 445.994 658.987 442.02V442.02C658.987 438.047 655.766 434.826 651.793 434.826Z" fill="white"/>
<path d="M651.793 462.909H587.187C583.214 462.909 579.993 466.13 579.993 470.103V470.103C579.993 474.077 583.214 477.298 587.187 477.298H651.793C655.766 477.298 658.987 474.077 658.987 470.103V470.103C658.987 466.13 655.766 462.909 651.793 462.909Z" fill="white"/>
<path d="M488.003 496.452H401.19C396.209 496.447 391.434 494.465 387.912 490.943C384.39 487.421 382.409 482.646 382.403 477.665V329.399C382.409 324.419 384.39 319.643 387.912 316.121C391.434 312.599 396.209 310.618 401.19 310.612H488.003C492.984 310.618 497.759 312.599 501.281 316.121C504.803 319.643 506.784 324.419 506.79 329.399V477.665C506.784 482.646 504.803 487.421 501.281 490.943C497.759 494.465 492.984 496.447 488.003 496.452ZM401.19 312.075C396.597 312.08 392.194 313.907 388.946 317.155C385.698 320.403 383.871 324.806 383.866 329.399V477.665C383.871 482.258 385.698 486.662 388.946 489.909C392.194 493.157 396.597 494.984 401.19 494.989H488.003C492.596 494.984 496.999 493.157 500.247 489.909C503.495 486.662 505.322 482.258 505.327 477.665V329.399C505.322 324.806 503.495 320.403 500.247 317.155C496.999 313.907 492.596 312.08 488.003 312.075H401.19Z" fill="#6595F7"/>
<path d="M461.671 287.938H374.859C364.887 287.938 356.803 296.022 356.803 305.994V454.26C356.803 464.232 364.887 472.316 374.859 472.316H461.671C471.643 472.316 479.727 464.232 479.727 454.26V305.994C479.727 296.022 471.643 287.938 461.671 287.938Z" fill="#6445F1"/>
<path d="M419.219 370.669H414.61V369.791H419.219V370.669ZM410.043 370.669H405.477V369.791H410.043V370.669ZM400.909 370.669H396.342V369.791H400.909V370.669ZM391.775 370.669H387.208V369.791H391.775V370.669ZM382.641 370.669H380.046C379.36 370.669 378.675 370.602 378.002 370.468L378.173 369.608C378.79 369.73 379.417 369.791 380.045 369.791H382.641L382.641 370.669ZM423.819 369.58L423.428 368.795C424.734 368.141 425.875 367.198 426.763 366.038L427.46 366.571C426.491 367.837 425.246 368.866 423.819 369.58V369.58ZM373.699 368.513C372.436 367.539 371.41 366.291 370.701 364.862L371.488 364.473C372.137 365.782 373.077 366.926 374.234 367.818L373.699 368.513ZM429.403 362.262L428.542 362.093C428.66 361.486 428.72 360.869 428.72 360.25V357.624H429.597V360.25C429.597 360.925 429.532 361.599 429.403 362.262ZM370.503 360.284L369.625 360.26V355.693H370.503V360.284ZM429.599 353.056H428.721V348.489H429.599V353.056ZM370.506 351.125H369.628V346.558H370.506V351.125ZM429.599 343.922H428.721V339.355H429.599V343.922ZM370.506 341.991H369.628V337.424H370.506V341.991ZM429.599 334.789H428.721V330.222H429.599V334.789ZM370.506 332.858H369.628V328.29H370.506V332.858ZM429.599 325.654H428.721V321.087H429.599V325.654ZM370.506 323.723H369.628V321.118C369.628 320.435 369.694 319.754 369.826 319.084L370.688 319.254C370.567 319.868 370.506 320.492 370.506 321.118V323.723ZM427.728 316.877C427.076 315.569 426.134 314.427 424.975 313.538L425.509 312.841C426.774 313.812 427.802 315.059 428.515 316.486L427.728 316.877ZM372.474 315.314L371.777 314.779C372.75 313.515 373.997 312.488 375.425 311.777L375.815 312.563C374.507 313.215 373.364 314.155 372.473 315.314H372.474ZM421.033 311.756C420.422 311.636 419.801 311.576 419.179 311.576H416.563V310.698H419.179C419.858 310.698 420.536 310.764 421.202 310.895L421.033 311.756ZM411.996 311.576H407.429V310.698H411.996V311.576ZM402.862 311.576H398.293V310.698H402.86L402.862 311.576ZM393.728 311.576H389.16V310.698H393.727L393.728 311.576ZM384.594 311.576H380.046L380.026 310.698H384.593L384.594 311.576Z" fill="white"/>
<path d="M381.168 300.917H342.036C336.524 300.917 332.056 305.386 332.056 310.898V350.029C332.056 355.541 336.524 360.01 342.036 360.01H381.168C386.68 360.01 391.149 355.541 391.149 350.029V310.898C391.149 305.386 386.68 300.917 381.168 300.917Z" fill="#6595F7"/>
<path d="M379.031 304.145H344.174C339.264 304.145 335.283 308.125 335.283 313.035V347.892C335.283 352.802 339.264 356.783 344.174 356.783H379.031C383.941 356.783 387.921 352.802 387.921 347.892V313.035C387.921 308.125 383.941 304.145 379.031 304.145Z" fill="white"/>
<path d="M339.816 348.87L351.543 324.029C352.344 322.332 354.878 322.261 355.783 323.912L361.658 334.628C361.866 334.984 362.162 335.281 362.517 335.49C362.872 335.7 363.275 335.816 363.687 335.826C364.099 335.837 364.507 335.742 364.873 335.552C365.238 335.361 365.549 335.08 365.776 334.736L369.208 329.245C369.437 328.897 369.752 328.613 370.123 328.422C370.493 328.231 370.907 328.139 371.323 328.155C371.74 328.171 372.146 328.294 372.501 328.512C372.856 328.73 373.149 329.036 373.351 329.401L383.354 348.801C384.113 350.272 382.974 351.983 381.238 351.983H341.966C340.263 351.984 339.125 350.334 339.816 348.87Z" fill="#6595F7"/>
<path d="M377.039 321.259C380.157 321.259 382.684 318.731 382.684 315.613C382.684 312.495 380.157 309.968 377.039 309.968C373.921 309.968 371.394 312.495 371.394 315.613C371.394 318.731 373.921 321.259 377.039 321.259Z" fill="#6595F7"/>
<path d="M419.178 392.633H380.046C374.534 392.633 370.065 397.101 370.065 402.614V441.745C370.065 447.257 374.534 451.726 380.046 451.726H419.178C424.69 451.726 429.158 447.257 429.158 441.745V402.614C429.158 397.101 424.69 392.633 419.178 392.633Z" fill="#FF4655"/>
<path d="M417.041 395.859H382.184C377.274 395.859 373.293 399.84 373.293 404.75V439.607C373.293 444.517 377.274 448.497 382.184 448.497H417.041C421.951 448.497 425.931 444.517 425.931 439.607V404.75C425.931 399.84 421.951 395.859 417.041 395.859Z" fill="white"/>
<path d="M377.826 440.585L389.553 415.744C390.354 414.047 392.888 413.976 393.793 415.627L399.669 426.344C399.877 426.7 400.173 426.997 400.528 427.206C400.883 427.416 401.285 427.532 401.697 427.542C402.11 427.553 402.518 427.459 402.883 427.268C403.249 427.077 403.559 426.796 403.786 426.452L407.217 420.961C407.446 420.612 407.761 420.329 408.132 420.138C408.502 419.947 408.916 419.855 409.333 419.871C409.749 419.887 410.155 420.01 410.51 420.228C410.865 420.446 411.158 420.752 411.36 421.117L421.364 440.517C422.122 441.988 420.983 443.699 419.247 443.699H379.976C378.273 443.699 377.135 442.05 377.826 440.585Z" fill="#FF4655"/>
<path d="M415.049 412.973C418.167 412.973 420.695 410.445 420.695 407.327C420.695 404.209 418.167 401.682 415.049 401.682C411.931 401.682 409.404 404.209 409.404 407.327C409.404 410.445 411.931 412.973 415.049 412.973Z" fill="#FF4655"/>
<path d="M439.162 330.978C442.019 330.978 444.335 328.662 444.335 325.805C444.335 322.949 442.019 320.633 439.162 320.633C436.306 320.633 433.99 322.949 433.99 325.805C433.99 328.662 436.306 330.978 439.162 330.978Z" fill="white"/>
<path d="M468.743 323.799H447.678V327.811H468.743V323.799Z" fill="white"/>
<path d="M439.162 346.776C442.019 346.776 444.335 344.461 444.335 341.604C444.335 338.747 442.019 336.432 439.162 336.432C436.306 336.432 433.99 338.747 433.99 341.604C433.99 344.461 436.306 346.776 439.162 346.776Z" fill="white"/>
<path d="M468.743 339.598H447.678V343.61H468.743V339.598Z" fill="white"/>
<path d="M439.162 362.575C442.019 362.575 444.335 360.259 444.335 357.403C444.335 354.546 442.019 352.23 439.162 352.23C436.306 352.23 433.99 354.546 433.99 357.403C433.99 360.259 436.306 362.575 439.162 362.575Z" fill="white"/>
<path d="M468.743 355.396H447.678V359.409H468.743V355.396Z" fill="white"/>
<path d="M439.162 411.552C442.019 411.552 444.335 409.236 444.335 406.379C444.335 403.523 442.019 401.207 439.162 401.207C436.306 401.207 433.99 403.523 433.99 406.379C433.99 409.236 436.306 411.552 439.162 411.552Z" fill="white"/>
<path d="M468.743 404.374H447.678V408.386H468.743V404.374Z" fill="white"/>
<path d="M439.162 427.351C442.019 427.351 444.335 425.035 444.335 422.178C444.335 419.322 442.019 417.006 439.162 417.006C436.306 417.006 433.99 419.322 433.99 422.178C433.99 425.035 436.306 427.351 439.162 427.351Z" fill="white"/>
<path d="M468.743 420.173H447.678V424.185H468.743V420.173Z" fill="white"/>
<path d="M439.162 443.149C442.019 443.149 444.335 440.834 444.335 437.977C444.335 435.12 442.019 432.805 439.162 432.805C436.306 432.805 433.99 435.12 433.99 437.977C433.99 440.834 436.306 443.149 439.162 443.149Z" fill="white"/>
<path d="M468.743 435.972H447.678V439.984H468.743V435.972Z" fill="white"/>
<path d="M631.019 557.596C631.007 558.348 629.287 558.076 629.287 558.076C629.287 558.076 628.962 560.27 628.26 563.927C628.207 564.179 628.16 564.436 628.107 564.697C627.344 568.597 626.188 573.945 624.582 579.978C624.512 580.247 624.438 580.513 624.359 580.785C623.271 584.834 621.978 589.179 620.471 593.591C620.378 593.875 620.278 594.15 620.179 594.434C618.465 599.428 616.473 604.322 614.213 609.094C614.128 609.273 614.044 609.448 613.956 609.624C610.178 617.406 605.606 624.487 600.141 629.478H496.444L496.915 603.869L497.176 589.671L497.188 588.886L497.377 578.728L497.389 578.076L497.5 572.04L497.512 571.253L497.82 554.413L497.837 553.634L497.989 545.361L477.058 563.901L476.336 564.539L466.839 572.956L458.925 554.492L458.6 553.737L457.837 551.955V551.952L457.301 550.706V550.703L452.772 540.126L452.436 539.345L447.465 527.759L447.152 527.022L442.614 516.434C442.614 516.434 447.049 513.046 453.34 508.318C453.495 508.201 453.653 508.081 453.811 507.964C456.359 506.048 459.194 503.93 462.149 501.732C462.427 501.525 462.705 501.32 462.986 501.109C466.567 498.453 470.303 495.705 473.904 493.087C474.089 492.955 474.273 492.824 474.455 492.692C474.505 492.654 474.554 492.619 474.604 492.581C474.788 492.446 474.972 492.314 475.154 492.183C484.302 485.571 492.34 480.038 494.426 479.43C496.512 478.821 498.858 478.21 501.45 477.63H501.453C501.687 477.578 501.921 477.525 502.161 477.472H502.164C508.093 476.201 514.09 475.269 520.125 474.681C520.368 474.655 520.611 474.631 520.854 474.611C524.622 474.245 528.645 473.973 532.916 473.824C533.133 473.815 533.349 473.809 533.569 473.803C545.713 473.414 559.83 474.014 575.717 476.29C576.065 476.337 576.413 476.39 576.761 476.44C580.29 476.957 583.903 477.561 587.601 478.251C588.859 478.488 590.102 478.771 591.322 479.102C591.662 479.193 591.998 479.289 592.334 479.389C596.806 480.707 601.056 482.685 604.944 485.258C605.175 485.41 605.403 485.562 605.634 485.723C607.931 487.298 610.082 489.075 612.063 491.033C612.223 491.188 612.381 491.349 612.539 491.507C616.741 495.771 620.086 500.802 622.393 506.326C622.478 506.516 622.557 506.709 622.633 506.905C622.835 507.399 623.025 507.9 623.209 508.406C623.382 508.889 623.549 509.368 623.707 509.854C624.182 511.301 624.583 512.772 624.909 514.26C624.944 514.421 624.979 514.582 625.015 514.743C625.021 514.772 625.026 514.804 625.035 514.834C625.904 518.962 626.925 523.634 627.876 528.617C627.929 528.895 627.987 529.173 628.034 529.453C628.32 530.975 628.601 532.52 628.865 534.088C628.897 534.281 628.932 534.474 628.964 534.667C629.605 538.517 630.155 542.488 630.527 546.475C630.553 546.736 630.574 546.993 630.594 547.254C630.899 550.712 631.059 554.182 631.019 557.596Z" fill="#FF4655"/>
<path d="M559.315 560.41C558.297 562.499 556.731 564.273 554.784 565.541C552.836 566.809 550.581 567.525 548.259 567.61L539.522 567.993C529.996 568.412 520.148 568.845 511.052 572.256C507.863 573.453 504.765 575.027 501.766 576.548C500.326 577.282 498.863 578.023 497.377 578.728L497.389 578.075C498.779 577.411 500.148 576.715 501.499 576.027C504.513 574.497 507.626 572.914 510.847 571.709C520.031 568.265 529.926 567.829 539.496 567.408L548.232 567.025C550.441 566.928 552.584 566.242 554.439 565.037C556.293 563.832 557.79 562.153 558.776 560.173C559.762 558.194 560.199 555.987 560.044 553.781C559.888 551.575 559.144 549.451 557.89 547.63C555.171 543.713 551.536 540.519 547.302 538.327C537.717 533.455 526.553 533.104 515.751 532.768C514.905 532.741 514.06 532.715 513.22 532.686C502.058 532.308 489.349 531.296 479.738 524.034C476.97 521.943 475.232 519.798 474.428 517.478C473.386 514.491 474.135 511.196 476.251 509.473C477.951 508.083 480.238 507.806 482.251 507.718C489.065 507.416 495.987 508.794 502.681 510.129C512.419 512.068 521.614 513.9 530.687 511.123C531.605 510.842 532.515 510.48 532.96 509.725C533.401 508.976 533.288 508.007 533.115 506.995C531.746 498.9 530.192 489.725 525.757 482.144C524.157 479.458 522.269 476.955 520.125 474.681C520.367 474.654 520.61 474.631 520.853 474.61C522.904 476.828 524.717 479.254 526.263 481.849C530.751 489.52 532.313 498.753 533.691 506.896C533.881 508.019 534.007 509.105 533.463 510.023C532.916 510.951 531.839 511.384 530.856 511.682C521.643 514.502 511.947 512.572 502.568 510.702C495.908 509.377 489.019 508.004 482.278 508.303C480.358 508.388 478.188 508.645 476.619 509.927C474.694 511.498 474.019 514.526 474.978 517.288C475.748 519.494 477.418 521.548 480.092 523.566C489.565 530.726 502.169 531.726 513.237 532.101C514.08 532.13 514.925 532.157 515.771 532.183C526.634 532.522 537.866 532.873 547.568 537.806C551.889 540.042 555.597 543.302 558.37 547.3C559.701 549.194 560.492 551.415 560.658 553.724C560.825 556.033 560.36 558.344 559.315 560.41Z" fill="white"/>
<path d="M565.187 516.776C561.904 515.843 558.23 514.497 555.839 511.592C551.453 506.258 553.598 497.94 558.101 493.291C562.84 488.399 569.617 486.188 575.594 484.236L591.322 479.102C591.662 479.192 591.998 479.289 592.334 479.388L575.775 484.792C569.862 486.723 563.159 488.909 558.522 493.698C554.195 498.165 552.112 506.135 556.293 511.22C558.578 514.002 562.153 515.304 565.345 516.214C584.713 521.726 605.108 518.087 624.909 514.26C624.944 514.421 624.98 514.582 625.015 514.743C625.021 514.772 625.026 514.804 625.035 514.833C605.164 518.669 584.691 522.326 565.187 516.776Z" fill="white"/>
<path d="M576.612 544.426C575.786 557.305 574.76 573.33 582.109 586.012C589.028 597.958 602.039 604.676 614.213 609.093C614.128 609.272 614.043 609.447 613.955 609.623C601.7 605.17 588.598 598.385 581.6 586.305C574.165 573.47 575.199 557.346 576.029 544.388C576.149 542.525 576.354 540.749 577.556 539.514C578.502 538.546 579.847 538.165 581.143 537.861C590.626 535.635 600.541 535.316 610.132 535.009C611.826 534.953 613.514 534.9 615.202 534.836C619.751 534.66 624.305 534.411 628.865 534.087C628.897 534.28 628.932 534.473 628.965 534.666C624.383 534.994 619.803 535.245 615.225 535.421C613.537 535.485 611.843 535.538 610.152 535.594C600.591 535.901 590.702 536.22 581.278 538.432C580.064 538.715 578.812 539.066 577.975 539.924C576.913 541.012 576.725 542.677 576.612 544.426Z" fill="white"/>
<path d="M471.95 542.426C472.945 545.305 473.705 548.333 472.529 550.957C471.286 553.734 468.258 555.05 465.347 555.05C464.539 555.052 463.734 554.948 462.953 554.74C461.069 554.185 459.325 553.236 457.836 551.955V551.952L457.301 550.706C458.887 552.183 460.835 553.558 463.106 554.176C466.327 555.047 470.528 553.991 471.994 550.72C473.088 548.28 472.354 545.384 471.397 542.616C468.115 533.131 463.651 524.098 458.111 515.729C457.793 515.246 457.468 514.76 457.143 514.272C455.865 512.358 454.536 510.369 453.339 508.318C453.495 508.201 453.652 508.081 453.81 507.964C455.01 510.024 456.344 512.025 457.629 513.947C457.956 514.436 458.278 514.921 458.6 515.404C464.167 523.815 468.652 532.894 471.95 542.426V542.426Z" fill="white"/>
<path d="M506.374 488.769C505.657 489.535 504.674 489.977 503.808 490.331C494.524 494.123 484.498 493.921 474.454 492.692C474.504 492.654 474.554 492.619 474.604 492.581C474.788 492.446 474.972 492.315 475.153 492.183C484.908 493.336 494.621 493.45 503.586 489.79C504.396 489.459 505.309 489.05 505.946 488.368C508.328 485.826 505.762 481.633 503.457 479.439C502.804 478.818 502.136 478.216 501.453 477.631C501.687 477.578 501.921 477.525 502.161 477.473H502.164C502.74 477.973 503.305 478.485 503.861 479.015C506.824 481.837 508.878 486.095 506.374 488.769Z" fill="white"/>
<path d="M622.633 506.904C620.726 506.945 618.818 506.966 616.91 506.966C613.107 506.966 609.302 506.889 605.497 506.735C601.342 506.565 598.905 505.348 598.25 503.11C597.565 500.775 599.324 498.545 600.433 497.425C603.636 494.183 607.817 492.299 612.063 491.032C612.223 491.187 612.381 491.348 612.539 491.506C608.262 492.75 604.043 494.607 600.848 497.835C599.83 498.864 598.212 500.898 598.812 502.946C599.388 504.915 601.647 505.991 605.52 506.149C609.315 506.304 613.112 506.382 616.91 506.381C618.739 506.381 620.566 506.362 622.393 506.325C622.478 506.515 622.557 506.708 622.633 506.904Z" fill="white"/>
<path d="M576.76 476.44C566.632 481.291 555.895 485.03 544.572 486.074C544.066 486.121 543.536 486.162 543.004 486.162C541.983 486.204 540.969 485.977 540.063 485.504C538.72 484.731 537.945 483.274 537.322 482.104L532.916 473.824C533.132 473.815 533.349 473.81 533.568 473.804L537.84 481.829C538.428 482.932 539.16 484.307 540.356 484.995C541.573 485.697 543.08 485.624 544.519 485.492C555.465 484.483 565.872 480.928 575.717 476.291C576.064 476.336 576.413 476.39 576.76 476.44Z" fill="white"/>
<path d="M442.613 516.436L354.803 476.736L342.925 503.542L438.2 571.695C441.557 573.967 445.521 575.175 449.575 575.16C453.629 575.145 457.584 573.908 460.924 571.61L465.044 568.775L442.613 516.436Z" fill="#F59060"/>
<path d="M585.936 556.809L631.018 557.594L636.059 602.471C636.441 605.869 636.101 609.309 635.062 612.566C634.023 615.824 632.308 618.825 630.029 621.374C627.75 623.923 624.959 625.962 621.838 627.359C618.717 628.755 615.336 629.477 611.917 629.477H496.444L496.915 603.87L587.954 589.78L585.936 556.809Z" fill="#F59060"/>
<path d="M608.593 585.664L587.862 589.265L588.041 590.296L608.772 586.695L608.593 585.664Z" fill="#090909"/>
<path d="M525.386 439.073C525.371 439.245 525.365 439.417 525.359 439.589C525.319 440.515 525.307 441.435 525.333 442.342C525.33 442.497 525.333 442.653 525.34 442.809C525.353 443.294 525.378 443.763 525.419 444.242C525.494 445.321 525.607 446.395 525.779 447.433C526.862 454.021 530.036 459.683 536.924 462.404L535.467 473.633C535.322 474.734 535.359 475.851 535.578 476.939C535.706 477.552 536.045 478.1 536.536 478.487C541.983 482.833 552.27 481.435 562.829 475.693L560.677 453.691L567.508 452.762C570.244 452.393 572.648 450.626 573.592 448.031C573.654 447.871 573.707 447.708 573.752 447.543L574.276 445.719C574.592 444.62 574.653 443.463 574.455 442.337C574.257 441.21 573.805 440.144 573.133 439.219C572.461 438.294 571.587 437.534 570.577 436.997C569.567 436.461 568.448 436.161 567.305 436.122C567.305 436.122 567.31 436.022 567.308 435.849C567.334 432.831 567.003 406.745 547.973 407.264C538.675 407.506 530.711 414.023 528.209 422.978C526.904 427.679 525.663 433.399 525.386 439.073Z" fill="#F59060"/>
<path d="M533.161 449.376C533.001 449.292 532.858 449.179 532.739 449.042C530.93 446.982 534.215 439.016 534.893 437.441C534.941 437.327 535.033 437.238 535.147 437.192C535.262 437.147 535.39 437.148 535.503 437.197C535.616 437.245 535.706 437.337 535.751 437.452C535.797 437.566 535.795 437.694 535.747 437.807C534.269 441.248 532.336 447.174 533.438 448.429C533.509 448.509 533.725 448.756 534.457 448.549C534.575 448.516 534.702 448.531 534.809 448.591C534.917 448.652 534.996 448.752 535.029 448.87C535.063 448.989 535.048 449.116 534.988 449.223C534.928 449.331 534.828 449.41 534.71 449.444C534.205 449.626 533.648 449.601 533.161 449.376V449.376Z" fill="#090909"/>
<path d="M543.307 446.252C545.846 446.112 547.84 444.853 547.762 443.44C547.685 442.027 545.564 440.996 543.026 441.135C540.487 441.275 538.493 442.534 538.571 443.947C538.649 445.36 540.769 446.391 543.307 446.252Z" fill="#FC6D6D"/>
<path d="M525.334 442.342C525.33 442.497 525.334 442.653 525.341 442.809C525.354 443.294 525.379 443.763 525.42 444.242C525.495 445.321 525.607 446.395 525.78 447.433C525.87 447.437 525.953 447.43 526.045 447.425C528.593 447.285 530.588 446.026 530.507 444.608C530.425 443.191 528.308 442.16 525.767 442.302C525.621 442.31 525.482 442.327 525.334 442.342Z" fill="#FC6D6D"/>
<path d="M536.921 462.408C536.921 462.408 542.08 464.219 548.267 459.804C548.267 459.804 544.741 465.981 536.554 465.225L536.921 462.408Z" fill="#090909"/>
<path d="M545.71 433.103C545.075 432.784 544.408 432.535 543.721 432.359C543.043 432.18 542.346 432.088 541.646 432.083C540.977 432.09 540.315 432.218 539.692 432.463C539.095 432.72 538.555 433.093 538.103 433.56L538.051 433.609C537.979 433.677 537.894 433.73 537.801 433.765C537.709 433.801 537.61 433.817 537.511 433.814C537.311 433.808 537.122 433.723 536.985 433.578C536.848 433.432 536.774 433.238 536.78 433.039C536.785 432.839 536.871 432.649 537.016 432.512C537.025 432.503 537.036 432.493 537.045 432.485C537.676 431.912 538.417 431.472 539.222 431.191C540.014 430.937 540.846 430.83 541.677 430.877C542.475 430.934 543.262 431.092 544.02 431.347C544.77 431.594 545.491 431.922 546.17 432.326C546.269 432.386 546.342 432.483 546.371 432.596C546.401 432.708 546.387 432.828 546.33 432.93C546.273 433.032 546.18 433.108 546.068 433.142C545.957 433.176 545.837 433.166 545.733 433.114L545.71 433.103Z" fill="#090909"/>
<path d="M524.844 432.528C525.449 432.078 526.102 431.699 526.792 431.397C527.491 431.085 528.228 430.868 528.985 430.753C529.777 430.645 530.583 430.695 531.357 430.899C532.141 431.127 532.87 431.515 533.497 432.038C533.577 432.098 533.646 432.173 533.697 432.259C533.748 432.345 533.782 432.44 533.796 432.539C533.811 432.639 533.805 432.74 533.779 432.837C533.754 432.934 533.71 433.025 533.649 433.104C533.588 433.184 533.511 433.251 533.424 433.3C533.337 433.35 533.241 433.382 533.142 433.394C533.042 433.407 532.941 433.399 532.845 433.372C532.748 433.344 532.658 433.298 532.58 433.236C532.57 433.228 532.559 433.219 532.551 433.211L532.489 433.158C532.048 432.736 531.526 432.408 530.955 432.194C530.362 431.993 529.735 431.91 529.11 431.95C528.453 432.005 527.806 432.147 527.186 432.373C526.554 432.598 525.949 432.892 525.382 433.251L525.361 433.265C525.263 433.327 525.144 433.349 525.03 433.326C524.916 433.304 524.815 433.238 524.749 433.142C524.682 433.047 524.655 432.929 524.673 432.814C524.691 432.7 524.753 432.596 524.846 432.526L524.844 432.528Z" fill="#090909"/>
<path d="M542.604 436.944C542.72 435.878 542.245 434.952 541.544 434.875C540.843 434.799 540.18 435.602 540.065 436.669C539.949 437.735 540.423 438.661 541.125 438.737C541.826 438.814 542.488 438.011 542.604 436.944Z" fill="#090909"/>
<path d="M530.032 436.634C530.141 435.626 529.798 434.762 529.266 434.704C528.733 434.647 528.213 435.417 528.103 436.425C527.994 437.433 528.337 438.297 528.869 438.355C529.402 438.413 529.922 437.642 530.032 436.634Z" fill="#090909"/>
<path d="M569.39 448.03C570.362 445.654 570.438 443.77 569.613 442.432C568.456 440.554 565.85 440.33 565.824 440.328L565.899 439.323C566.027 439.333 569.034 439.582 570.466 441.896C571.474 443.525 571.425 445.717 570.322 448.412L569.39 448.03Z" fill="#090909"/>
<path d="M567.309 436.127C565.79 436.458 564.345 437.067 563.048 437.925C560.919 439.348 560.566 440.585 559.689 440.741C558.288 440.99 555.88 438.419 551.452 426.74C540.159 429.341 531.84 427.87 527.271 426.61C522.771 425.369 521.047 424.154 520.546 423.777C513.2 418.26 510.257 404.861 516.457 396.464C517.422 395.159 520.385 391.146 525.365 390.328C534.754 388.786 539.898 404.598 550.143 403.504C553.432 403.153 554.912 401.38 558.119 402.233C562.046 403.277 564.45 407.164 565.877 410.333C568.093 411.53 570.001 413.224 571.453 415.282C577.805 424.408 571.549 436.75 571.216 437.382L567.309 436.127Z" fill="#090909"/>
<path d="M566.185 452.946L561.407 461.153L560.676 453.691L566.185 452.946Z" fill="#090909"/>
<path d="M534.517 453.597C535.926 453.622 538.437 453.309 541.893 451.492C541.969 451.451 542.055 451.435 542.141 451.444C542.226 451.453 542.307 451.488 542.373 451.543C542.439 451.599 542.486 451.673 542.509 451.756C542.533 451.839 542.53 451.927 542.503 452.008C541.777 454.162 539.527 458.673 534.237 454.362C534.168 454.306 534.117 454.229 534.094 454.142C534.07 454.056 534.074 453.964 534.104 453.88C534.135 453.796 534.191 453.723 534.265 453.672C534.339 453.622 534.427 453.595 534.517 453.597V453.597Z" fill="#E52039"/>
<path d="M442.613 516.436L462.915 570.24L465.044 568.775L442.613 516.436Z" fill="#090909"/>
<path d="M585.936 556.809L631.433 561.286L631.018 557.594L585.936 556.809Z" fill="#090909"/>
<path d="M560.676 629.477H461.091L448.095 565.804C447.757 564.149 447.792 562.44 448.196 560.8C448.6 559.16 449.364 557.631 450.432 556.322C451.501 555.014 452.847 553.959 454.373 553.235C455.899 552.511 457.566 552.136 459.256 552.136H544.891L560.676 629.477Z" fill="#6445F1"/>
<path d="M611.917 629.477H560.676C560.379 629.481 560.089 629.382 559.856 629.198C559.623 629.013 559.46 628.755 559.394 628.464L543.609 553.654C543.576 553.489 543.577 553.319 543.611 553.154C543.645 552.989 543.711 552.833 543.806 552.694C543.901 552.555 544.023 552.437 544.164 552.345C544.305 552.254 544.463 552.191 544.629 552.162C544.964 552.091 545.314 552.155 545.602 552.34C545.891 552.524 546.096 552.815 546.172 553.149L561.744 626.947H611.917C612.087 626.941 612.256 626.97 612.415 627.031C612.573 627.092 612.718 627.184 612.84 627.302C612.962 627.42 613.06 627.561 613.126 627.718C613.192 627.874 613.226 628.042 613.226 628.212C613.226 628.382 613.192 628.55 613.126 628.707C613.06 628.863 612.962 629.005 612.84 629.123C612.718 629.241 612.573 629.333 612.415 629.394C612.256 629.455 612.087 629.484 611.917 629.478V629.477Z" fill="#090909"/>
<path d="M503.251 600.049C508.984 598.008 511.9 591.493 509.766 585.498C507.631 579.502 501.253 576.297 495.52 578.338C489.788 580.379 486.871 586.894 489.006 592.89C491.141 598.885 497.518 602.09 503.251 600.049Z" fill="white"/>
<path d="M586.459 518.791H585.412V556.808H586.459V518.791Z" fill="#090909"/>
<path d="M498.511 518.791H497.465V545.359H498.511V518.791Z" fill="#090909"/>
<path d="M358.834 478.238L346.934 469.016C346.254 468.506 345.501 468.101 344.699 467.817C339.679 466.032 320.179 457.977 305.142 451.716C302.934 450.797 301.274 453.828 303.233 455.198C306.978 457.817 315.718 461.488 315.516 465.107C315.44 466.456 313.728 466.588 312.973 469.333C312.741 470.174 312.595 471.279 311.886 472.945C311.728 473.383 311.527 473.804 311.285 474.203C310.554 475.291 309.635 475.592 308.718 477.502C307.638 479.753 308.53 480.143 307.279 482.923C306.566 484.508 306.072 484.833 305.627 486.46C305.334 487.531 304.998 488.8 305.56 490.138C305.805 490.723 306.169 491.25 306.63 491.685C307.091 492.12 307.637 492.454 308.235 492.665L327.593 499.543C329.732 500.304 334.314 498.308 335.627 500.158L347.352 506.279L358.834 478.238Z" fill="#F59060"/>
<path d="M340.855 483.199C339.852 483.288 338.842 483.166 337.889 482.842C337.102 482.56 336.381 482.12 335.769 481.549C333.168 479.135 332.802 474.893 332.75 473.715L330.159 471.715L328.108 470.132L325.563 468.174C325.152 467.857 324.858 467.413 324.726 466.912C324.594 466.41 324.631 465.879 324.832 465.401C325.032 464.923 325.385 464.525 325.836 464.268C326.286 464.011 326.809 463.91 327.322 463.981L330.155 464.369L332.649 464.706L337.07 465.31L336.906 466.532L332.229 465.888L329.735 465.551L327.15 465.2C326.906 465.167 326.658 465.216 326.444 465.339C326.23 465.462 326.063 465.652 325.968 465.879C325.873 466.107 325.857 466.359 325.92 466.597C325.983 466.836 326.124 467.046 326.319 467.196L328.543 468.909L330.594 470.492L333.973 473.096L333.977 473.402C333.979 473.447 334.022 478.253 336.614 480.646C337.687 481.646 339.088 482.092 340.768 481.974L340.855 483.199Z" fill="#090909"/>
<path d="M315.812 464.464L315.298 465.583L332.46 473.467L332.974 472.348L315.812 464.464Z" fill="#090909"/>
<path d="M327.638 490.547L327.317 489.358C329.163 488.86 330.404 487.974 331.004 486.724C331.835 484.994 331.243 482.989 331.013 482.347L311.629 473.506L312.14 472.386L331.968 481.427L332.062 481.641C332.116 481.763 333.363 484.65 332.121 487.248C331.358 488.841 329.85 489.951 327.638 490.547Z" fill="#090909"/>
<path d="M324.369 498.842L323.795 497.753C327.972 495.548 327.262 491.526 326.976 490.427L307.12 483.372L307.532 482.212L327.965 489.472L328.061 489.754C328.081 489.814 330.053 495.842 324.369 498.842Z" fill="#090909"/>
<path d="M331.933 482.326L331.064 481.453C333.96 478.568 332.774 473.601 332.761 473.551L333.956 473.255C334.016 473.486 335.319 478.954 331.933 482.326Z" fill="#090909"/>
<path d="M637.474 629.477H291.136V743.997H637.474V629.477Z" fill="#015566"/>
<path d="M642.933 629.477H285.676C281.423 629.477 277.976 632.924 277.976 637.177C277.976 641.43 281.423 644.878 285.676 644.878H642.933C647.186 644.878 650.633 641.43 650.633 637.177C650.633 632.924 647.186 629.477 642.933 629.477Z" fill="#004751"/>
<path d="M449.601 629.477H362.782C359.562 629.477 356.474 628.198 354.197 625.922C351.92 623.645 350.641 620.557 350.641 617.337C350.641 614.117 351.92 611.029 354.197 608.752C356.474 606.475 359.562 605.195 362.782 605.195H449.601V629.477Z" fill="#6445F1"/>
<path d="M363.075 608.371H449.602V626.302H363.075C360.707 626.302 358.436 625.361 356.761 623.687C355.086 622.012 354.146 619.741 354.146 617.372V617.301C354.145 616.129 354.376 614.967 354.825 613.884C355.274 612.8 355.932 611.816 356.761 610.987C357.59 610.157 358.575 609.5 359.658 609.051C360.741 608.602 361.903 608.371 363.075 608.371V608.371Z" fill="white"/>
<path d="M449.602 611.842H355.627V613.027H449.602V611.842Z" fill="#090909"/>
<path d="M449.602 622.636H356.336V623.821H449.602V622.636Z" fill="#090909"/>
<path d="M449.602 616.744H354.146V617.93H449.602V616.744Z" fill="#090909"/>
<path d="M371.008 586.265H438.701V605.196H371.008C368.497 605.196 366.09 604.199 364.314 602.424C362.539 600.649 361.542 598.241 361.542 595.731V595.731C361.542 593.22 362.539 590.812 364.314 589.037C366.09 587.262 368.497 586.265 371.008 586.265V586.265Z" fill="#FCB913"/>
<path d="M371.237 588.74H438.702V602.721H371.237C369.39 602.721 367.619 601.988 366.313 600.682C365.007 599.376 364.273 597.605 364.273 595.758V595.702C364.273 593.856 365.007 592.085 366.313 590.779C367.619 589.473 369.39 588.739 371.237 588.739V588.74Z" fill="white"/>
<path d="M438.701 591.316H365.429V592.502H438.701V591.316Z" fill="#090909"/>
<path d="M438.701 599.731H365.981V600.917H438.701V599.731Z" fill="#090909"/>
<path d="M438.701 595.138H364.274V596.323H438.701V595.138Z" fill="#090909"/>
<path d="M326.909 512.885H323.677V557.696H326.909V512.885Z" fill="#080808"/>
<path d="M320.125 497.799C320.125 497.799 325.201 484.206 330.474 497.799C330.475 497.799 325.094 507.577 320.125 497.799Z" fill="#FF4655"/>
<path d="M318.14 496.655C317.745 496.437 317.301 496.325 316.85 496.33C316.399 496.334 315.957 496.455 315.567 496.681C315.177 496.907 314.852 497.23 314.623 497.619C314.395 498.008 314.271 498.449 314.264 498.9C314.207 502.787 314.959 506.644 316.471 510.226C317.6 512.869 320.708 520.144 325.276 520.157C329.844 520.171 332.997 512.896 334.099 510.35C335.649 506.728 336.411 502.818 336.334 498.879C336.33 498.437 336.214 498.004 335.996 497.62C335.777 497.236 335.464 496.914 335.087 496.686C334.709 496.457 334.279 496.329 333.837 496.313C333.396 496.298 332.958 496.395 332.565 496.597C330.352 497.797 327.877 498.43 325.36 498.44C322.843 498.45 320.362 497.837 318.14 496.655V496.655Z" fill="#FF4655"/>
<path d="M342.851 614.897L337.889 628.926C337.852 629.076 337.767 629.21 337.648 629.309C337.529 629.408 337.381 629.466 337.227 629.475H313.353C313.191 629.472 313.035 629.409 312.917 629.298C312.811 629.195 312.733 629.067 312.691 628.926L307.729 614.865C303.106 601.773 303.106 586.791 307.713 573.683L307.729 573.65C311.081 563.948 312.013 553.573 310.444 543.428V543.412C310.363 542.83 310.703 542.312 311.155 542.312H339.391C339.843 542.312 340.199 542.83 340.102 543.412C339.989 544.172 339.892 544.931 339.795 545.691C339.518 548.127 339.377 550.576 339.375 553.028C339.364 560.055 340.539 567.032 342.85 573.668C347.473 587.022 347.473 601.542 342.851 614.897V614.897Z" fill="#6445F1"/>
<path d="M325.3 608.726C330.241 608.726 334.247 601.464 334.247 592.506C334.247 583.548 330.241 576.286 325.3 576.286C320.358 576.286 316.353 583.548 316.353 592.506C316.353 601.464 320.358 608.726 325.3 608.726Z" fill="white"/>
<circle cx="571" cy="499" r="571" fill="#EEEEEE" fill-opacity="0.6"/>
</svg>
