<svg width="256" height="26" viewBox="0 0 256 26" fill="none" xmlns="http://www.w3.org/2000/svg">
<path d="M0.101587 10.1269C0.101587 8.57698 0.101587 7.33704 0 6.09709H2.84444L3.04762 8.06033C3.65714 7.02705 4.87619 5.78711 7.11111 5.78711C8.83809 5.78711 10.1587 6.82039 10.7683 8.26699H10.8698C11.3778 7.54369 11.8857 7.02705 12.4952 6.61374C13.2063 6.09709 14.019 5.78711 15.1365 5.78711C17.3714 5.78711 19.5048 7.33703 19.5048 11.5735V19.4265H16.254V12.0901C16.254 9.81692 15.5429 8.57698 13.9175 8.57698C12.8 8.57698 11.9873 9.4036 11.5809 10.3336C11.4794 10.6435 11.3778 11.0569 11.3778 11.4702V19.5298H8.22857V11.7802C8.22857 9.92024 7.51746 8.57698 5.99365 8.57698C4.7746 8.57698 3.9619 9.61026 3.65714 10.5402C3.55555 10.8502 3.45397 11.2635 3.45397 11.6768V19.6331H0.101587V10.1269Z" fill="#424242"/>
<path d="M35.5555 12.7101C35.5555 17.6699 32.2031 19.8398 28.8507 19.8398C25.092 19.8398 22.2476 17.2566 22.2476 12.9168C22.2476 8.47365 25.092 5.78711 29.0539 5.78711C32.9142 5.78711 35.5555 8.57697 35.5555 12.7101ZM25.5999 12.8134C25.5999 15.3966 26.819 17.3599 28.8507 17.3599C30.7809 17.3599 32.1015 15.5 32.1015 12.8134C32.1015 10.7469 31.1872 8.37032 28.9523 8.37032C26.5142 8.26699 25.5999 10.6435 25.5999 12.8134Z" fill="#424242"/>
<path d="M50.6917 12.7101C50.6917 17.6699 47.3393 19.8398 43.987 19.8398C40.2282 19.8398 37.3838 17.2566 37.3838 12.9168C37.3838 8.47365 40.2282 5.78711 44.1901 5.78711C48.152 5.78711 50.6917 8.57697 50.6917 12.7101ZM40.8378 12.8134C40.8378 15.3966 42.0568 17.3599 44.0885 17.3599C46.0187 17.3599 47.3393 15.5 47.3393 12.8134C47.3393 10.7469 46.4251 8.37032 44.1901 8.37032C41.752 8.26699 40.8378 10.6435 40.8378 12.8134Z" fill="#424242"/>
<path d="M53.4351 10.1269C53.4351 8.57698 53.4351 7.33704 53.3335 6.09709H56.2795L56.4827 8.06034H56.5843C57.1938 7.02705 58.616 5.78711 60.7494 5.78711C63.0859 5.78711 65.4224 7.33704 65.4224 11.5735V19.5298H62.07V11.9868C62.07 10.0236 61.3589 8.57698 59.5303 8.57698C58.2097 8.57698 57.2954 9.50693 56.8891 10.5402C56.7875 10.8502 56.7875 11.2635 56.7875 11.6768V19.5298H53.4351V10.1269Z" fill="#424242"/>
<path d="M68.876 0H72.2284V19.5291H68.876V0Z" fill="#424242"/>
<path d="M83.3018 19.529L83.0987 18.0824H82.9971C82.1844 19.1157 80.7622 19.839 79.1368 19.839C76.4955 19.839 74.9717 17.8757 74.9717 15.8092C74.9717 12.3993 77.9177 10.7461 82.7939 10.7461V10.5394C82.7939 9.60947 82.4891 8.16287 80.1526 8.16287C78.832 8.16287 77.5114 8.57618 76.5971 9.19616L75.9876 7.02626C77.0034 6.40629 78.6288 5.88965 80.7622 5.88965C84.9272 5.88965 86.1463 8.57619 86.1463 11.4694V16.3258C86.1463 17.5658 86.2479 18.7024 86.3495 19.529H83.3018ZM82.7939 12.916C80.4574 12.916 78.2225 13.4326 78.2225 15.4992C78.2225 16.8425 79.0352 17.4624 80.1526 17.4624C81.4733 17.4624 82.4891 16.5325 82.7939 15.6025C82.8955 15.3959 82.8955 15.0859 82.8955 14.8792V12.916H82.7939Z" fill="#424242"/>
<path d="M91.4286 6.09552L93.7651 13.2252C94.0699 14.0518 94.2731 15.0851 94.4762 15.8084H94.5778C94.781 15.0851 95.0858 14.0518 95.2889 13.1218L97.3207 5.99219H100.876L97.6255 15.0851C95.7969 20.0448 94.5778 22.3181 93.054 23.6613C91.7334 24.7979 90.4128 25.3146 89.6001 25.4179L88.7874 22.7314C89.3969 22.628 90.0064 22.3181 90.7175 21.8014C91.327 21.3881 92.0381 20.5615 92.5461 19.7349C92.6477 19.5282 92.7493 19.3215 92.7493 19.1149C92.7493 19.0116 92.7493 18.8049 92.5461 18.4949L87.7715 6.09552H91.4286Z" fill="#424242"/>
<path d="M107.276 2.27246V6.09561H110.222V9.19546H107.276V14.0519C107.276 15.7052 107.682 16.4285 108.901 16.4285C109.409 16.4285 109.815 16.3251 110.12 16.3251V19.5283C109.612 19.735 108.596 19.8383 107.479 19.8383C106.158 19.8383 105.041 19.3216 104.431 18.7017C103.72 17.875 103.314 16.6351 103.314 14.6719V9.19546H101.587V6.09561H103.314V3.20242L107.276 2.27246Z" fill="#424242"/>
<path d="M115.606 14.1559C115.708 15.9125 117.435 16.7391 119.365 16.7391C120.787 16.7391 121.905 16.5325 123.022 16.2225L123.53 19.0123C122.21 19.529 120.483 19.839 118.756 19.839C114.286 19.839 111.746 17.1524 111.746 13.0193C111.746 9.60947 113.778 5.88965 118.451 5.88965C122.718 5.88965 124.343 9.29948 124.343 12.606C124.343 13.3293 124.241 13.9493 124.241 14.2592H115.606V14.1559ZM120.483 11.2627C120.483 10.2294 120.076 8.57619 118.146 8.57619C116.419 8.57619 115.708 10.1261 115.606 11.2627H120.483Z" fill="#424242"/>
<path d="M136.635 19.219C135.924 19.529 134.502 19.839 132.978 19.839C128.711 19.839 125.968 17.1524 125.968 13.0193C125.968 9.09283 128.61 5.88965 133.486 5.88965C134.603 5.88965 135.721 6.09631 136.635 6.40629L136.025 9.50614C135.517 9.29948 134.806 9.09283 133.689 9.09283C131.556 9.09283 130.133 10.6428 130.133 12.8126C130.133 15.2925 131.759 16.5325 133.79 16.5325C134.806 16.5325 135.517 16.3258 136.127 16.1192L136.635 19.219Z" fill="#424242"/>
<path d="M138.87 0H142.933V7.6463H143.035C143.441 7.02633 144.051 6.61301 144.66 6.30303C145.27 5.99304 146.082 5.78639 146.793 5.78639C149.435 5.78639 151.365 7.6463 151.365 11.6761V19.5291H147.301V12.1927C147.301 10.4362 146.692 9.19622 145.168 9.19622C144.051 9.19622 143.441 9.91952 143.136 10.6428C143.035 10.9528 143.035 11.2628 143.035 11.5728V19.5291H138.971V0H138.87Z" fill="#424242"/>
<path d="M154.718 10.3336C154.718 8.68031 154.616 7.23371 154.616 6.09709H158.172L158.375 7.95701H158.477C158.984 7.13038 160.407 5.78711 162.54 5.78711C165.283 5.78711 167.315 7.64702 167.315 11.5735V19.5298H163.251V12.0901C163.251 10.3336 162.642 9.19695 161.219 9.19695C160.102 9.19695 159.391 10.0236 159.188 10.7469C159.086 10.9535 158.984 11.3668 158.984 11.7802V19.5298H154.921V10.3336H154.718Z" fill="#424242"/>
<path d="M183.568 12.6066C183.568 17.5664 180.114 19.7362 176.559 19.7362C172.698 19.7362 169.752 17.153 169.752 12.8132C169.752 8.47346 172.597 5.68359 176.762 5.68359C180.825 5.78692 183.568 8.57679 183.568 12.6066ZM174.019 12.8132C174.019 15.0865 174.933 16.8431 176.762 16.8431C178.387 16.8431 179.403 15.1898 179.403 12.8132C179.403 10.85 178.692 8.78344 176.762 8.78344C174.73 8.78344 174.019 10.7467 174.019 12.8132Z" fill="#424242"/>
<path d="M186.108 0H190.171V19.5291H186.108V0Z" fill="#424242"/>
<path d="M206.628 12.6066C206.628 17.5664 203.174 19.7362 199.619 19.7362C195.759 19.7362 192.812 17.153 192.812 12.8132C192.812 8.47346 195.657 5.68359 199.822 5.68359C203.886 5.78692 206.628 8.57679 206.628 12.6066ZM196.978 12.8132C196.978 15.0865 197.892 16.8431 199.72 16.8431C201.346 16.8431 202.362 15.1898 202.362 12.8132C202.362 10.85 201.651 8.78344 199.72 8.78344C197.79 8.78344 196.978 10.7467 196.978 12.8132Z" fill="#424242"/>
<path d="M221.765 6.09691C221.663 6.92353 221.663 8.06015 221.663 10.1267V17.5664C221.663 20.1496 221.155 22.2161 219.632 23.5594C218.209 24.7993 216.178 25.2126 214.248 25.2126C212.521 25.2126 210.692 24.9027 209.473 24.1794L210.286 20.9762C211.098 21.4928 212.622 22.0095 214.146 22.0095C216.076 22.0095 217.6 20.9762 217.6 18.4963V17.5664H217.498C216.686 18.703 215.467 19.3229 213.943 19.3229C210.692 19.3229 208.355 16.6364 208.355 12.7099C208.355 8.37013 211.098 5.68359 214.349 5.68359C216.178 5.68359 217.295 6.51022 218.006 7.5435H218.108L218.209 5.99358H221.765V6.09691ZM217.6 11.5733C217.6 11.2633 217.6 11.0567 217.498 10.85C217.194 9.7134 216.381 8.9901 215.263 8.9901C213.74 8.9901 212.521 10.3334 212.521 12.8132C212.521 14.7765 213.536 16.4297 215.263 16.4297C216.279 16.4297 217.194 15.7064 217.397 14.7765C217.498 14.4665 217.498 14.0532 217.498 13.6399V11.5733H217.6Z" fill="#424242"/>
<path d="M229.282 2.37617C229.282 3.51278 228.368 4.44274 227.047 4.44274C225.727 4.44274 224.914 3.51278 224.914 2.37617C224.914 1.13623 225.727 0.3096 227.047 0.3096C228.368 0.206272 229.181 1.13623 229.282 2.37617ZM225.016 19.5287V6.09599H229.079V19.5287H225.016Z" fill="#424242"/>
<path d="M235.581 14.1559C235.683 15.9125 237.41 16.7391 239.34 16.7391C240.762 16.7391 241.879 16.5325 242.997 16.2225L243.505 19.0123C242.184 19.529 240.457 19.839 238.73 19.839C234.26 19.839 231.721 17.1524 231.721 13.0193C231.721 9.60947 233.752 5.88965 238.425 5.88965C242.692 5.88965 244.318 9.29948 244.318 12.606C244.318 13.3293 244.216 13.9493 244.216 14.2592H235.581V14.1559ZM240.356 11.2627C240.356 10.2294 239.949 8.57619 238.019 8.57619C236.292 8.57619 235.581 10.1261 235.479 11.2627H240.356Z" fill="#424242"/>
<path d="M246.654 15.8098C247.365 16.3264 248.99 16.8431 250.21 16.8431C251.429 16.8431 251.937 16.4297 251.937 15.7064C251.937 14.9831 251.53 14.6732 250.006 14.1565C247.263 13.2266 246.248 11.6766 246.248 10.1267C246.248 7.64683 248.381 5.68359 251.632 5.68359C253.156 5.68359 254.578 5.99358 255.39 6.40689L254.679 9.30009C254.07 8.9901 252.952 8.57679 251.835 8.57679C250.819 8.57679 250.311 8.9901 250.311 9.7134C250.311 10.3334 250.819 10.6434 252.444 11.2633C254.984 12.1933 256 13.4332 256 15.3965C256 17.8763 254.07 19.7362 250.311 19.7362C248.584 19.7362 247.06 19.3229 246.044 18.8063L246.654 15.8098Z" fill="#424242"/>
</svg>
